<?xml version="1.0" encoding="utf-8"?>
<!-- Generated by IcoMoon.io -->
<!DOCTYPE svg PUBLIC "-//W3C//DTD SVG 1.1//EN" "http://www.w3.org/Graphics/SVG/1.1/DTD/svg11.dtd">
<svg version="1.1" xmlns="http://www.w3.org/2000/svg" xmlns:xlink="http://www.w3.org/1999/xlink" width="27" height="32" viewBox="0 0 27 32">
<g id="icomoon-ignore">
</g>
<path d="M18.742 21.811c-1.152-0.481-3.888-1.424-5.571-1.921-0.144-0.045-0.166-0.052-0.166-0.65 0-0.493 0.203-0.99 0.401-1.411 0.214-0.457 0.469-1.225 0.56-1.914 0.255-0.296 0.603-0.881 0.827-1.995 0.196-0.982 0.105-1.339-0.026-1.675-0.013-0.035-0.028-0.070-0.038-0.105-0.049-0.23 0.018-1.427 0.187-2.355 0.116-0.637-0.030-1.991-0.907-3.111-0.554-0.708-1.613-1.577-3.548-1.698l-1.061 0.001c-1.902 0.12-2.963 0.989-3.517 1.697-0.877 1.12-1.022 2.475-0.907 3.111 0.169 0.929 0.236 2.125 0.188 2.351-0.010 0.039-0.025 0.074-0.039 0.11-0.129 0.335-0.221 0.693-0.025 1.675 0.223 1.114 0.57 1.699 0.827 1.995 0.090 0.689 0.345 1.457 0.56 1.914 0.157 0.334 0.231 0.789 0.231 1.432 0 0.597-0.023 0.605-0.157 0.647-1.74 0.514-4.51 1.515-5.543 1.967-0.817 0.351-1.018 0.982-1.018 1.55s0 2.254 0 2.625c0 0.372 0.222 1.007 1.018 1.007 0.613 0 5.523 0 7.755 0 0.668 0 1.098 0 1.098 0h0.192c0 0 0.439 0 1.117 0 2.239 0 7.142 0 7.754 0 0.798 0 1.018-0.635 1.018-1.007s0-2.057 0-2.625c0-0.569-0.392-1.263-1.21-1.615z" fill="#000000"></path>
<path d="M23.103 14.456v-4.19h-1.050v4.19h-4.189v1.050h4.189v4.19h1.050v-4.19h4.19v-1.050z" fill="#000000"></path>
</svg>
