<?xml version="1.0" encoding="utf-8"?>
<!-- Generated by IcoMoon.io -->
<!DOCTYPE svg PUBLIC "-//W3C//DTD SVG 1.1//EN" "http://www.w3.org/Graphics/SVG/1.1/DTD/svg11.dtd">
<svg version="1.1" xmlns="http://www.w3.org/2000/svg" xmlns:xlink="http://www.w3.org/1999/xlink" width="30" height="32" viewBox="0 0 30 32">
<g id="icomoon-ignore">
</g>
<path d="M9.547 16.693v0l0.533 0.373 1.653 1.067v-5.813c2.773 0 7.573 0.8 9.707 5.493 0.907 2.667 2.027 3.467 2.027 3.467v-3.893c0-5.173-2.773-9.6-7.2-11.573-0.053-0.053-0.16-0.053-0.213-0.107h13.813v24.533h-24.533v-16.427l4.213 2.88z" fill="#000000"></path>
<path d="M10.667 1.707v4c0 0 3.040 0.213 5.173 1.067 4.267 1.92 6.56 6.133 6.56 10.613-2.453-5.44-8.16-6.133-10.773-6.133-0.373 0-0.693 0-0.96 0.053v4.8l-4.267-2.88-1.067-0.693-5.333-3.573 10.667-7.253z" fill="#000000"></path>
</svg>
