<?xml version="1.0" encoding="utf-8"?>
<!-- Generated by IcoMoon.io -->
<!DOCTYPE svg PUBLIC "-//W3C//DTD SVG 1.1//EN" "http://www.w3.org/Graphics/SVG/1.1/DTD/svg11.dtd">
<svg version="1.1" xmlns="http://www.w3.org/2000/svg" xmlns:xlink="http://www.w3.org/1999/xlink" width="28" height="32" viewBox="0 0 28 32">
<g id="icomoon-ignore">
</g>
<path d="M7.988 26.681c2.089-2.997 3.234-6.481 3.336-10.147h-10.639c0.185 4.713 2.817 8.793 6.661 11.013 0.015-0.018 0.361-0.452 0.642-0.866z" fill="#000000"></path>
<path d="M8.296 3.96c0.26 0.304 0.652 0.871 0.652 0.871 2.161 3.149 3.341 6.802 3.442 10.636h3.22c0.101-3.835 1.281-7.487 3.441-10.636 0 0 0.426-0.552 0.674-0.869 0.326 0.156 0.643 0.325 0.954 0.506-1.964-1.14-4.244-1.796-6.679-1.796-2.432 0-4.71 0.655-6.672 1.793 0.314-0.182 0.639-0.347 0.969-0.504z" fill="#000000"></path>
<path d="M20.024 5.326c-2.089 2.998-3.235 6.479-3.337 10.142h10.628c-0.185-4.701-2.805-8.775-6.634-10.999-0.014 0.018-0.436 0.534-0.657 0.857z" fill="#000000"></path>
<path d="M11.314 15.468c-0.102-3.664-1.248-7.145-3.337-10.142-0.184-0.278-0.449-0.614-0.65-0.861-3.833 2.223-6.455 6.299-6.641 11.003h10.628z" fill="#000000"></path>
<path d="M16.676 16.534c0.102 3.667 1.245 7.151 3.334 10.148 0.182 0.267 0.642 0.841 0.655 0.858-0.306 0.178-0.619 0.345-0.94 0.498 4.344-2.070 7.39-6.42 7.59-11.504h-10.639z" fill="#000000"></path>
<path d="M19.051 27.169c-2.16-3.149-3.341-6.797-3.441-10.634h-3.22c-0.1 3.836-1.281 7.486-3.442 10.634 0 0-0.403 0.545-0.669 0.872-0.316-0.15-0.622-0.314-0.923-0.487 1.956 1.127 4.223 1.775 6.643 1.775 2.048 0 3.988-0.463 5.722-1.289-0.305-0.345-0.671-0.87-0.671-0.87z" fill="#000000"></path>
</svg>
