<?xml version="1.0" encoding="utf-8"?>
<!-- Generated by IcoMoon.io -->
<!DOCTYPE svg PUBLIC "-//W3C//DTD SVG 1.1//EN" "http://www.w3.org/Graphics/SVG/1.1/DTD/svg11.dtd">
<svg version="1.1" xmlns="http://www.w3.org/2000/svg" xmlns:xlink="http://www.w3.org/1999/xlink" width="30" height="32" viewBox="0 0 30 32">
<g id="icomoon-ignore">
</g>
<path d="M21.845 17.279l-6.034 6.034-8.297-8.297 6.034-6.034 8.297 8.297z" fill="#000000"></path>
<path d="M6.773 15.787l-6.453 6.453c-0.427 0.427-0.427 1.067 0 1.493l6.773 6.773c0.213 0.213 0.48 0.32 0.747 0.32s0.533-0.107 0.747-0.32l6.453-6.453-8.267-8.267zM5.6 22.933c-0.213 0.213-0.533 0.213-0.747 0s-0.213-0.533 0-0.747c0.213-0.213 0.533-0.213 0.747 0s0.213 0.533 0 0.747zM7.147 20.693c-0.213-0.213-0.213-0.533 0-0.747s0.533-0.213 0.747 0c0.213 0.213 0.213 0.533 0 0.747s-0.533 0.213-0.747 0zM8.64 25.973c-0.213 0.213-0.533 0.213-0.747 0s-0.213-0.533 0-0.747c0.213-0.213 0.533-0.213 0.747 0s0.213 0.533 0 0.747zM10.133 23.68c-0.213-0.213-0.213-0.533 0-0.747s0.533-0.213 0.747 0c0.213 0.213 0.213 0.533 0 0.747s-0.533 0.213-0.747 0z" fill="#000000"></path>
<path d="M29.333 8.267l-6.773-6.773c-0.213-0.213-0.48-0.32-0.747-0.32s-0.533 0.107-0.747 0.32l-6.773 6.773 8.32 8.267 6.72-6.773c0.427-0.373 0.427-1.067 0-1.493zM19.2 9.387c-0.213 0.213-0.533 0.213-0.747 0s-0.213-0.533 0-0.747c0.213-0.213 0.533-0.213 0.747 0s0.213 0.533 0 0.747zM20.693 7.093c-0.213-0.213-0.213-0.533 0-0.747s0.533-0.213 0.747 0c0.213 0.213 0.213 0.533 0 0.747s-0.533 0.213-0.747 0zM22.187 12.373c-0.213 0.213-0.533 0.213-0.747 0s-0.213-0.533 0-0.747c0.213-0.213 0.533-0.213 0.747 0s0.213 0.533 0 0.747zM24.48 10.133c-0.213 0.213-0.533 0.213-0.747 0s-0.213-0.533 0-0.747c0.213-0.213 0.533-0.213 0.747 0s0.213 0.533 0 0.747z" fill="#000000"></path>
</svg>
