<?xml version="1.0" encoding="utf-8"?>
<!-- Generated by IcoMoon.io -->
<!DOCTYPE svg PUBLIC "-//W3C//DTD SVG 1.1//EN" "http://www.w3.org/Graphics/SVG/1.1/DTD/svg11.dtd">
<svg version="1.1" xmlns="http://www.w3.org/2000/svg" xmlns:xlink="http://www.w3.org/1999/xlink" width="32" height="32" viewBox="0 0 32 32">
<g id="icomoon-ignore">
</g>
<path d="M0.020 10.649v10.701c0 0.873 0.708 1.58 1.58 1.58h13.348v-13.861h-13.348c-0.872 0-1.58 0.707-1.58 1.58z" fill="#000000"></path>
<path d="M28.809 12.803v-2.154c0-0.873-0.707-1.58-1.58-1.58h-11.215v1.066h11.215c0.283 0 0.513 0.23 0.513 0.513v10.701c0 0.283-0.23 0.514-0.513 0.514h-11.215v1.066h11.215c0.873 0 1.58-0.708 1.58-1.58v-2.153c1.753-0.015 3.171-1.44 3.171-3.197s-1.417-3.183-3.171-3.197z" fill="#000000"></path>
</svg>
