<?xml version="1.0" encoding="utf-8"?>
<!-- Generated by IcoMoon.io -->
<!DOCTYPE svg PUBLIC "-//W3C//DTD SVG 1.1//EN" "http://www.w3.org/Graphics/SVG/1.1/DTD/svg11.dtd">
<svg version="1.1" xmlns="http://www.w3.org/2000/svg" xmlns:xlink="http://www.w3.org/1999/xlink" width="28" height="32" viewBox="0 0 28 32">
<g id="icomoon-ignore">
</g>
<path d="M25.197 3.735h-9.596c-0.394 0-0.753 0.119-1.067 0.306v21.028h-1.066v-21.028c-0.315-0.187-0.675-0.306-1.068-0.306h-9.596c-1.178 0-2.132 0.955-2.132 2.133v18.134c0 1.178 0.955 2.133 2.132 2.133h9.596c0.010 0 0.021-0.003 0.031-0.003 0.567 0.014 1.025 0.471 1.038 1.037v1.099h1.066v-0.591h0.010v-0.481c0-0.576 0.46-1.044 1.033-1.063 0.007 0 0.016 0.003 0.023 0.003h9.596c1.178 0 2.133-0.955 2.133-2.133v-18.133c0-1.178-0.955-2.132-2.133-2.132z" fill="#000000"></path>
</svg>
