<?xml version="1.0" encoding="utf-8"?>
<!-- Generated by IcoMoon.io -->
<!DOCTYPE svg PUBLIC "-//W3C//DTD SVG 1.1//EN" "http://www.w3.org/Graphics/SVG/1.1/DTD/svg11.dtd">
<svg version="1.1" xmlns="http://www.w3.org/2000/svg" xmlns:xlink="http://www.w3.org/1999/xlink" width="20" height="32" viewBox="0 0 20 32">
<g id="icomoon-ignore">
</g>
<path d="M17.464 3.205h-14.928c-1.178 0-2.132 0.955-2.132 2.133v21.325c0 1.178 0.955 2.133 2.132 2.133h14.928c1.178 0 2.133-0.955 2.133-2.133v-21.325c0-1.178-0.955-2.132-2.133-2.132zM6.801 25.596h-3.199v-3.199h3.199v3.199zM6.801 20.798h-3.199v-3.199h3.199v3.199zM6.801 16h-3.199v-3.199h3.199v3.199zM11.599 25.596h-3.199v-3.199h3.199v3.199zM11.599 20.798h-3.199v-3.199h3.199v3.199zM11.599 16h-3.199v-3.199h3.199v3.199zM16.398 25.596h-3.199v-7.997h3.199v7.997zM16.398 16h-3.199v-3.199h3.199v3.199zM16.398 10.136h-12.795v-3.199h12.795v3.199z" fill="#000000"></path>
</svg>
