<?xml version="1.0" encoding="utf-8"?>
<!-- Generated by IcoMoon.io -->
<!DOCTYPE svg PUBLIC "-//W3C//DTD SVG 1.1//EN" "http://www.w3.org/Graphics/SVG/1.1/DTD/svg11.dtd">
<svg version="1.1" xmlns="http://www.w3.org/2000/svg" xmlns:xlink="http://www.w3.org/1999/xlink" width="28" height="32" viewBox="0 0 28 32">
<g id="icomoon-ignore">
</g>
<path d="M25.196 9.069h-4.41l-2.564-2.569c-0.003-0.003-0.006-0.006-0.008-0.008l-0.005-0.005v0.001c-0.385-0.381-0.914-0.617-1.499-0.617h-5.331c-0.62 0-1.172 0.268-1.562 0.69l-0.002-0.006-2.511 2.515h-4.5c-1.178 0-2.132 0.955-2.132 2.133v12.795c0 1.178 0.955 2.133 2.132 2.133h22.391c1.178 0 2.133-0.955 2.133-2.133v-12.795c0-1.178-0.955-2.133-2.133-2.133zM14 22.931c-3.234 0-5.864-2.631-5.864-5.865 0-3.233 2.631-5.863 5.864-5.863s5.864 2.63 5.864 5.863c0 3.234-2.631 5.865-5.864 5.865z" fill="#000000"></path>
<path d="M14 12.268c-2.651 0-4.798 2.148-4.798 4.797 0 2.651 2.148 4.799 4.798 4.799s4.798-2.149 4.798-4.799c0-2.649-2.148-4.797-4.798-4.797z" fill="#000000"></path>
</svg>
