<?xml version="1.0" encoding="utf-8"?>
<!-- Generated by IcoMoon.io -->
<!DOCTYPE svg PUBLIC "-//W3C//DTD SVG 1.1//EN" "http://www.w3.org/Graphics/SVG/1.1/DTD/svg11.dtd">
<svg version="1.1" xmlns="http://www.w3.org/2000/svg" xmlns:xlink="http://www.w3.org/1999/xlink" width="29" height="32" viewBox="0 0 29 32">
<g id="icomoon-ignore">
</g>
<path d="M22.4 22.933h-1.067v1.6c0 1.493 1.173 2.667 2.667 2.667s2.667-1.173 2.667-2.667v-1.6h-4.267z" fill="#000000"></path>
<path d="M3.2 22.933h-1.067v1.6c0 1.493 1.173 2.667 2.667 2.667s2.667-1.173 2.667-2.667v-1.6h-4.267z" fill="#000000"></path>
<path d="M28.8 11.2h-3.68l-0.907-4.267c-0.373-1.387-1.44-2.133-2.88-2.133h-13.867c-1.493 0-2.347 0.747-2.773 2.133l-0.96 4.267h-3.733v1.067h3.467v0.053c-1.653 0.107-2.933 1.493-2.933 3.2v6.347h27.733v-6.347c0-1.653-1.28-3.040-2.88-3.2v-0.053h3.413v-1.067zM4.8 11.2v0l0.907-3.947c0.32-0.96 0.8-1.387 1.707-1.387h13.867c1.013 0 1.6 0.427 1.867 1.333l0.907 4.213 0.16 0.853v0.053h-19.733l0.32-1.12zM5.867 19.733c-1.173 0-2.133-0.96-2.133-2.133s0.96-2.133 2.133-2.133 2.133 0.96 2.133 2.133-0.96 2.133-2.133 2.133zM22.933 19.733c-1.173 0-2.133-0.96-2.133-2.133s0.96-2.133 2.133-2.133 2.133 0.96 2.133 2.133-0.96 2.133-2.133 2.133z" fill="#000000"></path>
</svg>
