<?xml version="1.0" encoding="utf-8"?>
<!-- Generated by IcoMoon.io -->
<!DOCTYPE svg PUBLIC "-//W3C//DTD SVG 1.1//EN" "http://www.w3.org/Graphics/SVG/1.1/DTD/svg11.dtd">
<svg version="1.1" xmlns="http://www.w3.org/2000/svg" xmlns:xlink="http://www.w3.org/1999/xlink" width="29" height="32" viewBox="0 0 29 32">
<g id="icomoon-ignore">
</g>
<path d="M23.764 22.845h-20.615v-14.697h-1.050v15.747h25.196v-1.050h-1.050z" fill="#000000"></path>
<path d="M21.664 24.945h-20.615v-14.697h-1.050v15.747h25.196v-1.050h-1.050z" fill="#000000"></path>
<path d="M16.797 11.822c-1.158 0-2.1 0.942-2.1 2.099s0.942 2.1 2.1 2.1c1.158 0 2.1-0.942 2.1-2.1s-0.942-2.099-2.1-2.099z" fill="#000000"></path>
<path d="M4.199 6.048v15.747h25.196v-15.747h-25.196zM9.973 19.696h-3.149v-1.050h3.149v1.050zM9.973 9.231h-3.149v-1.050h3.149v1.050zM16.797 17.071c-1.739 0-3.149-1.41-3.149-3.15 0-1.739 1.41-3.149 3.149-3.149s3.149 1.41 3.149 3.149c0 1.74-1.41 3.15-3.149 3.15zM26.77 19.696h-3.149v-1.050h3.149v1.050zM26.77 9.231h-3.149v-1.050h3.149v1.050z" fill="#000000"></path>
</svg>
