<?xml version="1.0" encoding="utf-8"?>
<!-- Generated by IcoMoon.io -->
<!DOCTYPE svg PUBLIC "-//W3C//DTD SVG 1.1//EN" "http://www.w3.org/Graphics/SVG/1.1/DTD/svg11.dtd">
<svg version="1.1" xmlns="http://www.w3.org/2000/svg" xmlns:xlink="http://www.w3.org/1999/xlink" width="28" height="32" viewBox="0 0 28 32">
<g id="icomoon-ignore">
</g>
<path d="M14 2.672c-7.361 0-13.328 5.967-13.328 13.328s5.968 13.328 13.328 13.328 13.328-5.967 13.328-13.328-5.968-13.328-13.328-13.328zM21.78 12.39l-9.124 8.848c-0.155 0.15-0.356 0.225-0.557 0.225-0.205 0-0.409-0.078-0.565-0.234l-3.555-3.555c-0.312-0.312-0.312-0.818 0-1.131s0.818-0.312 1.131 0l2.998 2.998 8.559-8.299c0.317-0.307 0.822-0.3 1.131 0.018 0.307 0.317 0.299 0.823-0.018 1.131z" fill="#000000"></path>
</svg>
