<?xml version="1.0" encoding="utf-8"?>
<!-- Generated by IcoMoon.io -->
<!DOCTYPE svg PUBLIC "-//W3C//DTD SVG 1.1//EN" "http://www.w3.org/Graphics/SVG/1.1/DTD/svg11.dtd">
<svg version="1.1" xmlns="http://www.w3.org/2000/svg" xmlns:xlink="http://www.w3.org/1999/xlink" width="32" height="32" viewBox="0 0 32 32">
<g id="icomoon-ignore">
</g>
<path d="M32.025 15.469c0 3.231-2.613 5.844-5.837 5.863h-19.756c-3.531 0-6.394-2.863-6.394-6.394 0-2.806 1.813-5.188 4.325-6.050 0.344-2.013 2.088-3.55 4.2-3.55 0.688 0 1.338 0.169 1.912 0.456 1.331-2.781 4.162-4.706 7.45-4.706 4.563 0 8.262 3.7 8.262 8.262 0 0.088-0.012 0.169-0.012 0.25 3.231 0.019 5.85 2.637 5.85 5.869zM16.563 28.887v-6.488h-1.063v6.488l-3.488-3.488-0.756 0.756 4.775 4.775 4.775-4.775-0.756-0.756-3.488 3.488z" fill="#000000"></path>
</svg>
