<?xml version="1.0" encoding="utf-8"?>
<!-- Generated by IcoMoon.io -->
<!DOCTYPE svg PUBLIC "-//W3C//DTD SVG 1.1//EN" "http://www.w3.org/Graphics/SVG/1.1/DTD/svg11.dtd">
<svg version="1.1" xmlns="http://www.w3.org/2000/svg" xmlns:xlink="http://www.w3.org/1999/xlink" width="32" height="32" viewBox="0 0 32 32">
<g id="icomoon-ignore">
</g>
<path d="M26.194 9.606c0-0.088 0.012-0.169 0.012-0.25 0-4.569-3.7-8.262-8.262-8.262-3.287 0-6.119 1.925-7.45 4.706-0.575-0.287-1.225-0.456-1.912-0.456-2.112 0-3.862 1.537-4.2 3.55-2.519 0.856-4.331 3.238-4.331 6.044 0 3.531 2.862 6.394 6.394 6.394h9.069v-8.625l-3.488 3.488-0.756-0.756 4.775-4.775 4.775 4.775-0.756 0.756-3.488-3.488v8.625h9.625c3.225-0.019 5.838-2.637 5.838-5.863 0-3.231-2.613-5.85-5.844-5.863z" fill="#000000"></path>
</svg>
