<?xml version="1.0" encoding="utf-8"?>
<!-- Generated by IcoMoon.io -->
<!DOCTYPE svg PUBLIC "-//W3C//DTD SVG 1.1//EN" "http://www.w3.org/Graphics/SVG/1.1/DTD/svg11.dtd">
<svg version="1.1" xmlns="http://www.w3.org/2000/svg" xmlns:xlink="http://www.w3.org/1999/xlink" width="26" height="32" viewBox="0 0 26 32">
<g id="icomoon-ignore">
</g>
<path d="M23.664 4.82h-21.328c-1.178 0-2.132 0.955-2.132 2.133v13.869c0 1.178 0.955 2.133 2.132 2.133h14.968l4.226 4.226v-4.226h2.134c1.178 0 2.133-0.955 2.133-2.133v-13.869c0-1.178-0.955-2.133-2.133-2.133zM8.835 14.957c-0.589 0-1.066-0.477-1.066-1.066s0.477-1.066 1.066-1.066c0.589 0 1.066 0.478 1.066 1.066s-0.477 1.066-1.066 1.066zM13 14.957c-0.589 0-1.066-0.477-1.066-1.066s0.477-1.066 1.066-1.066c0.589 0 1.066 0.478 1.066 1.066s-0.477 1.066-1.066 1.066zM17.265 14.957c-0.589 0-1.066-0.477-1.066-1.066s0.477-1.066 1.066-1.066c0.589 0 1.066 0.478 1.066 1.066s-0.477 1.066-1.066 1.066z" fill="#000000"></path>
</svg>
