<?xml version="1.0" encoding="utf-8"?>
<!-- Generated by IcoMoon.io -->
<!DOCTYPE svg PUBLIC "-//W3C//DTD SVG 1.1//EN" "http://www.w3.org/Graphics/SVG/1.1/DTD/svg11.dtd">
<svg version="1.1" xmlns="http://www.w3.org/2000/svg" xmlns:xlink="http://www.w3.org/1999/xlink" width="26" height="32" viewBox="0 0 26 32">
<g id="icomoon-ignore">
</g>
<path d="M14.992 5.493c0.414-0.47 0.674-1.080 0.674-1.755 0-1.472-1.193-2.665-2.666-2.665s-2.666 1.193-2.666 2.665c0 0.675 0.259 1.285 0.674 1.755-6.12 0.957-10.803 6.251-10.803 12.64 0 7.067 5.729 12.795 12.795 12.795s12.795-5.728 12.795-12.795c0-6.389-4.683-11.683-10.803-12.64zM13 2.139c0.882 0 1.599 0.717 1.599 1.599s-0.717 1.599-1.599 1.599-1.599-0.717-1.599-1.599c0-0.881 0.717-1.599 1.599-1.599zM6.599 24.552l3.841-8.191 4.323 4.323-8.164 3.867zM15.517 19.931l-4.323-4.323 8.19-3.841-3.867 8.164z" fill="#000000"></path>
</svg>
