<?xml version="1.0" encoding="utf-8"?>
<!-- Generated by IcoMoon.io -->
<!DOCTYPE svg PUBLIC "-//W3C//DTD SVG 1.1//EN" "http://www.w3.org/Graphics/SVG/1.1/DTD/svg11.dtd">
<svg version="1.1" xmlns="http://www.w3.org/2000/svg" xmlns:xlink="http://www.w3.org/1999/xlink" width="28" height="32" viewBox="0 0 28 32">
<g id="icomoon-ignore">
</g>
<path d="M27.328 18.666v-5.331h-2.97c-0.239-0.999-0.616-1.941-1.114-2.809l2.065-2.065-3.769-3.77-2.022 2.022c-0.877-0.532-1.834-0.939-2.852-1.202v-2.839h-5.331v2.839c-1.018 0.263-1.975 0.67-2.852 1.202l-2.022-2.022-3.769 3.77 2.065 2.065c-0.498 0.867-0.875 1.81-1.114 2.809h-2.97v5.331h3.060c0.264 0.953 0.655 1.85 1.156 2.676l-2.198 2.198 3.769 3.77 2.241-2.241c0.816 0.469 1.7 0.828 2.633 1.069v3.191h5.331v-3.191c0.933-0.241 1.817-0.6 2.633-1.069l2.241 2.241 3.769-3.77-2.198-2.198c0.501-0.826 0.893-1.723 1.156-2.676h3.060zM14 19.733c-2.062 0-3.732-1.671-3.732-3.733s1.67-3.732 3.732-3.732 3.732 1.671 3.732 3.732-1.67 3.733-3.732 3.733z" fill="#000000"></path>
</svg>
