<?xml version="1.0" encoding="utf-8"?>
<!-- Generated by IcoMoon.io -->
<!DOCTYPE svg PUBLIC "-//W3C//DTD SVG 1.1//EN" "http://www.w3.org/Graphics/SVG/1.1/DTD/svg11.dtd">
<svg version="1.1" xmlns="http://www.w3.org/2000/svg" xmlns:xlink="http://www.w3.org/1999/xlink" width="30" height="32" viewBox="0 0 30 32">
<g id="icomoon-ignore">
</g>
<path d="M27.795 6.404h-25.59c-0.883 0-1.599 0.716-1.599 1.599v2.133h28.789v-2.133c0-0.883-0.716-1.599-1.599-1.599z" fill="#000000"></path>
<path d="M1.672 13.334h-1.066v10.662c0 0.884 0.716 1.599 1.599 1.599h25.59c0.883 0 1.599-0.715 1.599-1.599v-10.662h-27.723zM3.804 18.133h6.397v1.066h-6.397v-1.066zM14.467 22.398h-10.662v-1.066h10.662v1.066zM26.196 21.364c0 0.572-0.47 1.034-1.050 1.034h-2.165c-0.581 0-1.051-0.462-1.051-1.034v-0.064c0-0.571 0.47-1.035 1.051-1.035h2.165c0.579 0 1.050 0.463 1.050 1.035v0.064z" fill="#000000"></path>
</svg>
