<?xml version="1.0" encoding="utf-8"?>
<!-- Generated by IcoMoon.io -->
<!DOCTYPE svg PUBLIC "-//W3C//DTD SVG 1.1//EN" "http://www.w3.org/Graphics/SVG/1.1/DTD/svg11.dtd">
<svg version="1.1" xmlns="http://www.w3.org/2000/svg" xmlns:xlink="http://www.w3.org/1999/xlink" width="26" height="32" viewBox="0 0 26 32">
<g id="icomoon-ignore">
</g>
<path d="M10.179 12.326c0.808-0.647 1.832-1.035 2.947-1.035 2.61 0 4.726 2.116 4.726 4.726 0 0.707-0.16 1.376-0.438 1.978l7.23 4.303c0.694-1.27 1.191-2.664 1.433-4.146 0.028-0.168 0.051-0.337 0.072-0.506 0.066-0.534 0.104-1.077 0.104-1.629 0-7.25-5.877-13.127-13.126-13.127-0.001 0-0.001 0-0.001 0-3.436 0-6.562 1.321-8.903 3.482l5.955 5.955z" fill="#000000"></path>
<path d="M16.87 18.893c-0.305 0.396-0.667 0.745-1.080 1.027l4.038 7.385c1.72-1.024 3.179-2.436 4.274-4.107l-7.232-4.305z" fill="#000000"></path>
<path d="M14.861 20.41c-0.537 0.212-1.121 0.333-1.734 0.333-2.61 0-4.726-2.116-4.726-4.726 0-1.116 0.389-2.139 1.036-2.948l-5.952-5.952c-0.732 0.793-1.372 1.673-1.893 2.628-0.002 0.005-0.005 0.009-0.008 0.014-0.042 0.077-0.080 0.157-0.121 0.235-0.154 0.298-0.3 0.601-0.432 0.913-0.020 0.047-0.037 0.095-0.056 0.143-0.627 1.533-0.975 3.208-0.975 4.967 0 7.249 5.877 13.127 13.127 13.127 2.074 0 4.033-0.485 5.777-1.341l-4.043-7.392z" fill="#000000"></path>
</svg>
