<?xml version="1.0" encoding="utf-8"?>
<!-- Generated by IcoMoon.io -->
<!DOCTYPE svg PUBLIC "-//W3C//DTD SVG 1.1//EN" "http://www.w3.org/Graphics/SVG/1.1/DTD/svg11.dtd">
<svg version="1.1" xmlns="http://www.w3.org/2000/svg" xmlns:xlink="http://www.w3.org/1999/xlink" width="28" height="32" viewBox="0 0 28 32">
<g id="icomoon-ignore">
</g>
<path d="M27.861 22.698v-19.192h-27.723v19.192h13.328v2.062l-5.056 2.8 0.516 0.933 5.073-2.81 5.073 2.81 0.516-0.933-5.056-2.8v-2.062h13.328zM21.464 9.903c1.763 0 3.198 1.435 3.198 3.199s-1.435 3.199-3.198 3.199c-1.764 0-3.199-1.435-3.199-3.199s1.435-3.199 3.199-3.199zM13.695 17.815l-3.414-4.761-2.284 4.427-3.014-6.082-1.694 6.25-1.029-0.279 2.429-8.965 3.327 6.713 2.116-4.103 3.162 4.41 2.328-7.808 1.021 0.305-2.948 9.892z" fill="#000000"></path>
</svg>
