<?xml version="1.0" encoding="utf-8"?>
<!-- Generated by IcoMoon.io -->
<!DOCTYPE svg PUBLIC "-//W3C//DTD SVG 1.1//EN" "http://www.w3.org/Graphics/SVG/1.1/DTD/svg11.dtd">
<svg version="1.1" xmlns="http://www.w3.org/2000/svg" xmlns:xlink="http://www.w3.org/1999/xlink" width="27" height="32" viewBox="0 0 27 32">
<g id="icomoon-ignore">
</g>
<path d="M13.333 2.667c-7.36 0-13.333 5.973-13.333 13.333s5.973 13.333 13.333 13.333 13.333-5.973 13.333-13.333c0-7.36-5.973-13.333-13.333-13.333zM14.4 16.853l1.707 5.013h-5.547l1.707-4.96 0.267-0.853-0.8-0.427c-0.96-0.587-1.6-1.653-1.6-2.827 0-1.76 1.44-3.2 3.2-3.2s3.2 1.44 3.2 3.2c0 1.173-0.64 2.24-1.653 2.773l-0.8 0.427 0.32 0.853z" fill="#000000"></path>
</svg>
