<?xml version="1.0" encoding="utf-8"?>
<!-- Generated by IcoMoon.io -->
<!DOCTYPE svg PUBLIC "-//W3C//DTD SVG 1.1//EN" "http://www.w3.org/Graphics/SVG/1.1/DTD/svg11.dtd">
<svg version="1.1" xmlns="http://www.w3.org/2000/svg" xmlns:xlink="http://www.w3.org/1999/xlink" width="26" height="32" viewBox="0 0 26 32">
<g id="icomoon-ignore">
</g>
<path d="M13.387 10.027l-10.773 10.773c-1.387 1.387-1.547 3.627-0.373 5.173l-2.24 2.24 0.747 0.747 2.24-2.24c0.693 0.533 1.547 0.8 2.4 0.8 1.013 0 2.027-0.373 2.773-1.173l10.773-10.773-5.547-5.547z" fill="#000000"></path>
<path d="M24.693 4.32c-0.853-0.853-2.027-1.28-3.147-1.28s-2.293 0.427-3.147 1.28l-3.84 3.84-2.187-2.187-0.747 0.747 10.507 10.507 0.747-0.747-2.080-2.080 3.84-3.84c1.76-1.707 1.76-4.48 0.053-6.24z" fill="#000000"></path>
</svg>
