<?xml version="1.0" encoding="utf-8"?>
<!-- Generated by IcoMoon.io -->
<!DOCTYPE svg PUBLIC "-//W3C//DTD SVG 1.1//EN" "http://www.w3.org/Graphics/SVG/1.1/DTD/svg11.dtd">
<svg version="1.1" xmlns="http://www.w3.org/2000/svg" xmlns:xlink="http://www.w3.org/1999/xlink" width="26" height="32" viewBox="0 0 26 32">
<g id="icomoon-ignore">
</g>
<path d="M22.028 4.99h4.225v5.251h-4.225v-5.251z" fill="#000000"></path>
<path d="M22.028 16.542h4.225v4.201h-4.225v-4.2z" fill="#000000"></path>
<path d="M0 16.542h4.201v4.201h-4.201v-4.2z" fill="#000000"></path>
<path d="M0 11.292h4.201v4.2h-4.201v-4.2z" fill="#000000"></path>
<path d="M22.028 11.292h4.225v4.2h-4.225v-4.2z" fill="#000000"></path>
<path d="M0 21.793h4.201v5.25h-4.201v-5.25z" fill="#000000"></path>
<path d="M22.028 21.793h4.225v5.25h-4.225v-5.25z" fill="#000000"></path>
<path d="M0 4.99h4.201v5.251h-4.201v-5.251z" fill="#000000"></path>
<path d="M5.251 27.043h15.727v-22.053h-15.727v22.053zM10.501 11.773l7.351 4.245-7.351 4.244v-8.488z" fill="#000000"></path>
</svg>
