<?xml version="1.0" encoding="utf-8"?>
<!-- Generated by IcoMoon.io -->
<!DOCTYPE svg PUBLIC "-//W3C//DTD SVG 1.1//EN" "http://www.w3.org/Graphics/SVG/1.1/DTD/svg11.dtd">
<svg version="1.1" xmlns="http://www.w3.org/2000/svg" xmlns:xlink="http://www.w3.org/1999/xlink" width="20" height="32" viewBox="0 0 20 32">
<g id="icomoon-ignore">
</g>
<path d="M19.596 4.602l-0.709 0.247c-0.019 0.006-1.939 0.664-4.976 0.664-1.547 0-3.021-0.314-4.445-0.617-1.441-0.307-2.931-0.625-4.508-0.625-3.146 0-4.212 0.675-4.324 0.752l-0.23 0.159v22.546h1.066v-10.195c0.424-0.166 1.465-0.461 3.487-0.461 1.465 0 2.835 0.292 4.286 0.601 1.479 0.316 3.008 0.641 4.667 0.641 3.233 0 5.245-0.695 5.33-0.724l0.356-0.125-0-12.864z" fill="#000000"></path>
</svg>
