<?xml version="1.0" encoding="utf-8"?>
<!-- Generated by IcoMoon.io -->
<!DOCTYPE svg PUBLIC "-//W3C//DTD SVG 1.1//EN" "http://www.w3.org/Graphics/SVG/1.1/DTD/svg11.dtd">
<svg version="1.1" xmlns="http://www.w3.org/2000/svg" xmlns:xlink="http://www.w3.org/1999/xlink" width="26" height="32" viewBox="0 0 26 32">
<g id="icomoon-ignore">
</g>
<path d="M0.205 19.185h12.272v-8.53l0.002-1.053h1.064v9.583h12.251v-9.583h-6.251c0.889-0.782 1.453-1.924 1.453-3.198 0-2.352-1.913-4.265-4.265-4.265-1.605 0-3.004 0.892-3.732 2.205-0.728-1.313-2.127-2.205-3.732-2.205-2.352 0-4.265 1.913-4.265 4.265 0 1.273 0.564 2.416 1.453 3.198h-6.251v9.583zM16.813 15.184l-3.181-5.582h1.228l2.879 5.053-0.926 0.529zM16.732 3.206c1.764 0 3.199 1.435 3.199 3.199s-1.435 3.198-3.199 3.198c-1.764 0-3.199-1.434-3.199-3.198s1.435-3.199 3.199-3.199zM9.208 15.184l-0.926-0.529 2.896-5.053h1.228l-3.198 5.582zM6.069 6.404c0-1.764 1.435-3.199 3.199-3.199s3.199 1.435 3.199 3.199c0 1.763-1.435 3.198-3.199 3.198s-3.199-1.434-3.199-3.198z" fill="#000000"></path>
<path d="M13.544 20.251h12.251v9.61h-12.251v-9.61z" fill="#000000"></path>
<path d="M0.205 20.251h12.272v9.61h-12.272v-9.61z" fill="#000000"></path>
</svg>
