<?xml version="1.0" encoding="utf-8"?>
<!-- Generated by IcoMoon.io -->
<!DOCTYPE svg PUBLIC "-//W3C//DTD SVG 1.1//EN" "http://www.w3.org/Graphics/SVG/1.1/DTD/svg11.dtd">
<svg version="1.1" xmlns="http://www.w3.org/2000/svg" xmlns:xlink="http://www.w3.org/1999/xlink" width="28" height="32" viewBox="0 0 28 32">
<g id="icomoon-ignore">
</g>
<path d="M14 2.672c-0.004 0-0.007 0-0.011 0-0.002 0-0.003 0-0.005 0-0.005 0-0.010 0.001-0.016 0.001-7.347 0.017-13.296 5.977-13.296 13.327 0 7.349 5.949 13.31 13.296 13.327 0.005 0 0.010 0.001 0.016 0.001 0.002 0 0.004 0 0.005 0 0.004 0 0.008 0 0.011 0 7.36 0 13.328-5.968 13.328-13.328 0-7.361-5.968-13.328-13.328-13.328zM14 28.262c-0.003 0-0.007 0-0.010 0-0.002 0-0.003 0-0.005 0-0.005 0-0.010-0.001-0.014-0.001-6.759-0.016-12.232-5.5-12.232-12.261 0-6.762 5.473-12.245 12.232-12.261 0.005 0 0.010-0.001 0.014-0.001 0.002 0 0.003 0 0.005 0 0.004 0 0.007 0 0.010 0 6.771 0 12.262 5.49 12.262 12.262 0 6.771-5.491 12.262-12.262 12.262z" fill="#000000"></path>
<path d="M18.246 10.608c-1.196 0.291-2.437 0.46-3.713 0.497v4.362h4.337c-0.038-1.796-0.263-3.436-0.625-4.859z" fill="#000000"></path>
<path d="M14.533 4.885v5.247c1.184-0.037 2.336-0.194 3.447-0.462-0.838-2.654-2.148-4.394-3.447-4.785z" fill="#000000"></path>
<path d="M9.992 9.662c1.12 0.272 2.282 0.432 3.475 0.468v-5.258c-1.308 0.373-2.63 2.119-3.475 4.79z" fill="#000000"></path>
<path d="M21.987 8.147c-1.45-1.474-3.302-2.547-5.377-3.045 0.946 0.982 1.746 2.478 2.315 4.311 1.069-0.324 2.092-0.75 3.062-1.266z" fill="#000000"></path>
<path d="M19.851 15.467h5.341c-0.118-2.489-1.048-4.768-2.534-6.576-1.093 0.601-2.253 1.093-3.469 1.461 0.39 1.54 0.623 3.274 0.662 5.115z" fill="#000000"></path>
<path d="M9.099 15.467h4.368v-4.362c-1.286-0.037-2.537-0.209-3.742-0.503-0.362 1.425-0.587 3.067-0.626 4.865z" fill="#000000"></path>
<path d="M18.87 16.533h-4.337v4.357c1.276 0.038 2.517 0.207 3.714 0.498 0.36-1.422 0.585-3.061 0.623-4.855z" fill="#000000"></path>
<path d="M9.724 21.395c1.206-0.295 2.457-0.468 3.743-0.505v-4.357h-4.368c0.039 1.797 0.263 3.438 0.625 4.862z" fill="#000000"></path>
<path d="M13.467 27.127v-5.263c-1.194 0.037-2.356 0.196-3.477 0.468 0.845 2.674 2.168 4.422 3.477 4.795z" fill="#000000"></path>
<path d="M16.609 26.898c2.076-0.498 3.931-1.573 5.38-3.048-0.97-0.517-1.994-0.943-3.063-1.268-0.57 1.836-1.37 3.333-2.317 4.316z" fill="#000000"></path>
<path d="M11.352 5.111c-2.060 0.501-3.899 1.571-5.339 3.036 0.961 0.512 1.975 0.934 3.034 1.258 0.568-1.824 1.364-3.313 2.305-4.294z" fill="#000000"></path>
<path d="M19.19 21.644c1.216 0.367 2.377 0.86 3.471 1.462 1.485-1.807 2.413-4.085 2.531-6.572h-5.341c-0.039 1.838-0.272 3.571-0.662 5.11z" fill="#000000"></path>
<path d="M14.533 21.864v5.252c1.3-0.392 2.61-2.133 3.448-4.79-1.112-0.267-2.264-0.424-3.448-0.461z" fill="#000000"></path>
<path d="M8.781 10.347c-1.206-0.366-2.357-0.855-3.442-1.453-1.485 1.807-2.414 4.086-2.531 6.573h5.31c0.039-1.843 0.273-3.579 0.663-5.12z" fill="#000000"></path>
<path d="M8.118 16.533h-5.31c0.117 2.488 1.046 4.766 2.531 6.573 1.085-0.598 2.237-1.087 3.442-1.454-0.39-1.541-0.624-3.277-0.663-5.119z" fill="#000000"></path>
<path d="M6.010 23.849c1.441 1.466 3.281 2.538 5.342 3.039-0.942-0.981-1.738-2.472-2.306-4.298-1.059 0.323-2.074 0.746-3.036 1.259z" fill="#000000"></path>
</svg>
