<?xml version="1.0" encoding="utf-8"?>
<!-- Generated by IcoMoon.io -->
<!DOCTYPE svg PUBLIC "-//W3C//DTD SVG 1.1//EN" "http://www.w3.org/Graphics/SVG/1.1/DTD/svg11.dtd">
<svg version="1.1" xmlns="http://www.w3.org/2000/svg" xmlns:xlink="http://www.w3.org/1999/xlink" width="28" height="32" viewBox="0 0 28 32">
<g id="icomoon-ignore">
</g>
<path d="M14.533 15.213l11.495-4.962c-2.074-4.333-6.419-7.373-11.495-7.573v12.535z" fill="#000000"></path>
<path d="M13.467 16.157v-13.479c-7.113 0.28-12.795 6.134-12.795 13.315 0 7.362 5.968 13.328 13.328 13.328 2.585 0 4.997-0.739 7.041-2.013l0.007 0.010 0.397-0.27c0.005-0.003 0.009-0.006 0.014-0.009l0.080-0.054-8.072-10.83z" fill="#000000"></path>
<path d="M27.328 15.993c0-1.679-0.314-3.283-0.881-4.763l-11.63 5.016 7.566 10.102c3.014-2.443 4.945-6.172 4.945-10.355z" fill="#000000"></path>
</svg>
