<?xml version="1.0" encoding="utf-8"?>
<!-- Generated by IcoMoon.io -->
<!DOCTYPE svg PUBLIC "-//W3C//DTD SVG 1.1//EN" "http://www.w3.org/Graphics/SVG/1.1/DTD/svg11.dtd">
<svg version="1.1" xmlns="http://www.w3.org/2000/svg" xmlns:xlink="http://www.w3.org/1999/xlink" width="28" height="32" viewBox="0 0 28 32">
<g id="icomoon-ignore">
</g>
<path d="M14 2.672c-7.361 0-13.328 5.967-13.328 13.328s5.967 13.328 13.328 13.328 13.328-5.968 13.328-13.328c0-7.361-5.967-13.328-13.328-13.328zM14 22.931c-0.588 0-1.066-0.477-1.066-1.066 0-0.588 0.478-1.066 1.066-1.066s1.066 0.477 1.066 1.066c0 0.589-0.477 1.066-1.066 1.066zM16.119 15.637c-1.427 1.427-1.391 1.394-1.461 3.028h-1.191c0.071-1.803 0.469-2.421 1.887-3.738 0.69-0.653 1.213-1.437 1.213-2.407 0-1.493-1.213-2.519-2.668-2.519-2.034 0-3.042 1.41-3.005 3.333h-1.176c0.019-2.649 1.53-4.322 4.236-4.322 2.070 0 3.787 1.288 3.787 3.452 0 1.381-0.672 2.277-1.623 3.173z" fill="#000000"></path>
</svg>
