<?xml version="1.0" encoding="utf-8"?>
<!-- Generated by IcoMoon.io -->
<!DOCTYPE svg PUBLIC "-//W3C//DTD SVG 1.1//EN" "http://www.w3.org/Graphics/SVG/1.1/DTD/svg11.dtd">
<svg version="1.1" xmlns="http://www.w3.org/2000/svg" xmlns:xlink="http://www.w3.org/1999/xlink" width="26" height="32" viewBox="0 0 26 32">
<g id="icomoon-ignore">
</g>
<path d="M10.977 10.503c0.632-0.234 1.312-0.368 2.023-0.368 0.737 0 1.44 0.143 2.090 0.392l3.835-5.862c-1.773-0.928-3.785-1.46-5.925-1.46-2.115 0-4.105 0.522-5.862 1.431l3.839 5.867z" fill="#000000"></path>
<path d="M16.053 11.002c0.806 0.494 1.482 1.176 1.97 1.986l5.799-3.794c-1.014-1.608-2.372-2.972-3.975-3.991l-3.794 5.799z" fill="#000000"></path>
<path d="M18.491 13.956c0.237 0.638 0.374 1.325 0.374 2.043v0.002c-0 0.711-0.134 1.391-0.366 2.022l5.867 3.839c0.908-1.758 1.43-3.748 1.43-5.863 0-2.122-0.525-4.119-1.439-5.88l-5.865 3.837z" fill="#000000"></path>
<path d="M16.058 20.995l3.794 5.799c1.608-1.023 2.968-2.392 3.981-4.006l-5.799-3.794c-0.487 0.817-1.166 1.503-1.976 2.001z" fill="#000000"></path>
<path d="M15.095 21.471c-0.651 0.25-1.356 0.394-2.095 0.394-0.713 0-1.395-0.134-2.028-0.37l-3.839 5.867c1.758 0.91 3.75 1.433 5.866 1.433 2.141 0 4.156-0.533 5.93-1.463l-3.835-5.861z" fill="#000000"></path>
<path d="M10.002 21.030c-0.821-0.491-1.51-1.175-2.008-1.991l-5.799 3.794c1.023 1.613 2.394 2.979 4.012 3.996l3.794-5.8z" fill="#000000"></path>
<path d="M10.006 10.967l-3.793-5.799c-1.614 1.014-2.983 2.374-4.006 3.981l5.798 3.794c0.498-0.811 1.184-1.489 2.001-1.976z" fill="#000000"></path>
<path d="M7.522 18.074c-0.246-0.646-0.386-1.344-0.386-2.075 0-0.738 0.143-1.443 0.394-2.094l-5.861-3.835c-0.93 1.774-1.463 3.789-1.463 5.93 0.001 2.134 0.53 4.142 1.454 5.91l5.863-3.836z" fill="#000000"></path>
</svg>
