<?xml version="1.0" encoding="utf-8"?>
<!-- Generated by IcoMoon.io -->
<!DOCTYPE svg PUBLIC "-//W3C//DTD SVG 1.1//EN" "http://www.w3.org/Graphics/SVG/1.1/DTD/svg11.dtd">
<svg version="1.1" xmlns="http://www.w3.org/2000/svg" xmlns:xlink="http://www.w3.org/1999/xlink" width="27" height="32" viewBox="0 0 27 32">
<g id="icomoon-ignore">
</g>
<path d="M15.747 6.048v-3.149h-4.199v7.349h4.199z" fill="#000000"></path>
<path d="M16.797 6.048h10.498v4.199h-10.498v-4.199z" fill="#000000"></path>
<path d="M0 6.048h10.498v4.199h-10.498v-4.199z" fill="#000000"></path>
<path d="M16.797 11.297h-16.797v17.847h27.295v-17.847h-10.498zM16.798 16.547h5.24v1.050h-5.24v-1.050zM16.272 25.995h-1.050v-0.424c-0.011-0.022-0.051-0.080-0.162-0.128-0.731-0.305-2.489-0.912-3.538-1.222-0.861-0.272-0.861-1.057-0.861-1.434 0-0.535 0.194-1.017 0.364-1.376 0.105-0.223 0.234-0.623 0.277-0.949l0.041-0.311 0.205-0.238c0.031-0.036 0.192-0.246 0.311-0.836 0.079-0.398 0.050-0.47 0.033-0.515-0.023-0.058-0.038-0.103-0.052-0.148l-0.012-0.041-0.009-0.041c-0.091-0.426 0.031-1.486 0.117-1.958 0.028-0.154-0.012-0.729-0.391-1.213-0.333-0.425-0.851-0.665-1.542-0.715l-0.629 0.001c-0.679 0.049-1.191 0.289-1.523 0.714-0.379 0.485-0.419 1.060-0.391 1.215 0.086 0.473 0.208 1.533 0.116 1.957-0.022 0.095-0.046 0.163-0.073 0.23-0.016 0.044-0.045 0.117 0.035 0.516 0.118 0.588 0.278 0.797 0.31 0.833l0.206 0.239 0.041 0.313c0.042 0.326 0.171 0.723 0.277 0.947 0.172 0.368 0.252 0.808 0.252 1.39 0 0.377 0 1.161-0.836 1.427-1.111 0.329-2.9 0.974-3.546 1.256-0.017 0.007-0.030 0.014-0.039 0.018-0.001 0.010-0.002 0.023-0.002 0.041v0.453h-1.050c0-0.185 0-0.349 0-0.453 0-0.375 0.132-0.789 0.671-1.021 0.68-0.297 2.504-0.956 3.649-1.295 0.088-0.028 0.104-0.032 0.104-0.426 0-0.423-0.049-0.722-0.152-0.943-0.142-0.3-0.31-0.806-0.369-1.26-0.169-0.195-0.398-0.579-0.544-1.313-0.129-0.646-0.069-0.881 0.016-1.102 0.009-0.024 0.019-0.046 0.026-0.072 0.032-0.149-0.012-0.936-0.124-1.548-0.076-0.419 0.021-1.311 0.598-2.048 0.364-0.466 1.062-1.039 2.314-1.117l0.699-0.001c1.274 0.079 1.972 0.652 2.335 1.118 0.577 0.737 0.673 1.629 0.597 2.048-0.111 0.612-0.156 1.398-0.124 1.55 0.007 0.023 0.016 0.046 0.026 0.069 0.086 0.221 0.146 0.456 0.017 1.102-0.148 0.734-0.377 1.119-0.545 1.313-0.060 0.454-0.228 0.96-0.369 1.26-0.13 0.277-0.264 0.604-0.264 0.929 0 0.394 0.015 0.398 0.109 0.427 1.108 0.327 2.897 0.948 3.655 1.265 0.538 0.231 0.797 0.688 0.797 1.063 0 0.105 0 0.269 0 0.453zM24.146 20.746h-7.349v-1.050h7.349v1.050zM24.146 14.447h-7.348v-1.050h7.348v1.050z" fill="#000000"></path>
</svg>
