<?xml version="1.0" encoding="utf-8"?>
<!-- Generated by IcoMoon.io -->
<!DOCTYPE svg PUBLIC "-//W3C//DTD SVG 1.1//EN" "http://www.w3.org/Graphics/SVG/1.1/DTD/svg11.dtd">
<svg version="1.1" xmlns="http://www.w3.org/2000/svg" xmlns:xlink="http://www.w3.org/1999/xlink" width="28" height="32" viewBox="0 0 28 32">
<g id="icomoon-ignore">
</g>
<path d="M14 2.672c-7.361 0-13.328 5.967-13.328 13.328s5.968 13.328 13.328 13.328c7.361 0 13.328-5.967 13.328-13.328s-5.968-13.328-13.328-13.328zM14.067 7.958c0.883 0 1.599 0.715 1.599 1.599 0 0.883-0.716 1.599-1.599 1.599s-1.599-0.716-1.599-1.599c0-0.884 0.716-1.599 1.599-1.599zM16.219 23.417h-4.265v-1.066h1.066v-9.063h-1.066v-1.066h3.199v10.129h1.066v1.066z" fill="#000000"></path>
</svg>
