<?xml version="1.0" encoding="utf-8"?>
<!-- Generated by IcoMoon.io -->
<!DOCTYPE svg PUBLIC "-//W3C//DTD SVG 1.1//EN" "http://www.w3.org/Graphics/SVG/1.1/DTD/svg11.dtd">
<svg version="1.1" xmlns="http://www.w3.org/2000/svg" xmlns:xlink="http://www.w3.org/1999/xlink" width="29" height="32" viewBox="0 0 29 32">
<g id="icomoon-ignore">
</g>
<path d="M21.782 12.739c-2.004 0-4.099 1.812-6.555 2.069v-1.047c0.013-2.572 1.941-5.223 5.16-5.223h0.61c2.964 0 6.010-2.345 6.336-6.301h-1.051c-0.316 3.299-2.835 5.251-5.284 5.251h-0.61c-3.809 0-6.175 3.224-6.209 6.235h-0.002v0.040c0 0.008-0.002 0.017-0.002 0.026h0.002v1.019c-2.457-0.258-4.551-2.070-6.556-2.070-2.158 0-7.621 4.282-7.621 12.674 0 4.25 2.867 4.384 3.232 4.384 0.025 0 0.038 0 0.038 0 1.781 0 3.425-0.856 5.48-2.911s2.877-2.595 4.367-2.595c0.594 0 1.308 0 1.541 0 0.049 0 0.085 0 0.085 0 0.234 0 0.947 0 1.541 0 1.49 0 2.312 0.539 4.367 2.595s3.699 2.911 5.48 2.911c0 0 0.013 0 0.038 0 0.365 0 3.233-0.134 3.233-4.384 0-8.392-5.463-12.673-7.622-12.673zM10.504 20.090h-2.1v2.1h-1.050v-2.1h-2.1v-1.050h2.1v-2.1h1.050v2.1h2.1v1.050zM19.427 21.137c-0.871 0-1.575-0.706-1.575-1.575s0.705-1.575 1.575-1.575c0.87 0 1.575 0.704 1.575 1.575s-0.706 1.575-1.575 1.575zM23.628 22.187c-0.871 0-1.575-0.706-1.575-1.575s0.704-1.575 1.575-1.575c0.87 0 1.575 0.705 1.575 1.575s-0.706 1.575-1.575 1.575z" fill="#000000"></path>
</svg>
