<?xml version="1.0" encoding="utf-8"?>
<!-- Generated by IcoMoon.io -->
<!DOCTYPE svg PUBLIC "-//W3C//DTD SVG 1.1//EN" "http://www.w3.org/Graphics/SVG/1.1/DTD/svg11.dtd">
<svg version="1.1" xmlns="http://www.w3.org/2000/svg" xmlns:xlink="http://www.w3.org/1999/xlink" width="28" height="32" viewBox="0 0 28 32">
<g id="icomoon-ignore">
</g>
<path d="M0.672 6.938v1.066h0.784l0.283 2.133c0 0.639 0.284 1.21 0.732 1.599h23.061c0.448-0.389 0.731-0.96 0.731-1.599l0.283-2.133h0.784v-1.066h-26.657z" fill="#000000"></path>
<path d="M4.84 23.027c0.197 1.116 0.912 2.035 2.036 2.035h14.249c1.123 0 1.806-0.903 2.036-2.035l1.753-10.224h-21.826l1.753 10.224zM10.039 14.914l0.754-0.754 3.207 3.207 3.207-3.207 0.754 0.754-3.207 3.207 3.217 3.217-0.754 0.754-3.217-3.217-3.217 3.217-0.754-0.754 3.217-3.217-3.207-3.207z" fill="#000000"></path>
</svg>
