<?xml version="1.0" encoding="utf-8"?>
<!-- Generated by IcoMoon.io -->
<!DOCTYPE svg PUBLIC "-//W3C//DTD SVG 1.1//EN" "http://www.w3.org/Graphics/SVG/1.1/DTD/svg11.dtd">
<svg version="1.1" xmlns="http://www.w3.org/2000/svg" xmlns:xlink="http://www.w3.org/1999/xlink" width="26" height="32" viewBox="0 0 26 32">
<g id="icomoon-ignore">
</g>
<path d="M3.937 21.865c-1.767 0-3.199 1.432-3.199 3.198s1.432 3.199 3.199 3.199c1.766 0 3.199-1.432 3.199-3.199s-1.433-3.198-3.199-3.198z" fill="#000000"></path>
<path d="M3.937 3.738c-1.767 0-3.199 1.432-3.199 3.198s1.432 3.199 3.199 3.199c1.766 0 3.199-1.432 3.199-3.199s-1.433-3.198-3.199-3.198z" fill="#000000"></path>
<path d="M3.937 12.779c-1.767 0-3.199 1.432-3.199 3.198s1.432 3.199 3.199 3.199c1.766 0 3.199-1.432 3.199-3.199s-1.433-3.198-3.199-3.198z" fill="#000000"></path>
<path d="M13 21.865c-1.767 0-3.199 1.432-3.199 3.198s1.432 3.199 3.199 3.199c1.766 0 3.199-1.432 3.199-3.199s-1.433-3.198-3.199-3.198z" fill="#000000"></path>
<path d="M13 3.738c-1.767 0-3.199 1.432-3.199 3.198s1.432 3.199 3.199 3.199c1.766 0 3.199-1.432 3.199-3.199s-1.433-3.198-3.199-3.198z" fill="#000000"></path>
<path d="M13 12.779c-1.767 0-3.199 1.432-3.199 3.198s1.432 3.199 3.199 3.199c1.766 0 3.199-1.432 3.199-3.199s-1.433-3.198-3.199-3.198z" fill="#000000"></path>
<path d="M22.063 21.865c-1.767 0-3.199 1.432-3.199 3.198s1.432 3.199 3.199 3.199c1.766 0 3.199-1.432 3.199-3.199s-1.433-3.198-3.199-3.198z" fill="#000000"></path>
<path d="M22.063 10.135c1.766 0 3.199-1.432 3.199-3.199s-1.433-3.198-3.199-3.198c-1.767 0-3.199 1.432-3.199 3.198s1.432 3.199 3.199 3.199z" fill="#000000"></path>
<path d="M22.063 12.779c-1.767 0-3.199 1.432-3.199 3.198s1.432 3.199 3.199 3.199c1.766 0 3.199-1.432 3.199-3.199s-1.433-3.198-3.199-3.198z" fill="#000000"></path>
</svg>
