<?xml version="1.0" encoding="utf-8"?>
<!-- Generated by IcoMoon.io -->
<!DOCTYPE svg PUBLIC "-//W3C//DTD SVG 1.1//EN" "http://www.w3.org/Graphics/SVG/1.1/DTD/svg11.dtd">
<svg version="1.1" xmlns="http://www.w3.org/2000/svg" xmlns:xlink="http://www.w3.org/1999/xlink" width="22" height="32" viewBox="0 0 22 32">
<g id="icomoon-ignore">
</g>
<path d="M4.558 19.683c0.049 0.033 0.099 0.071 0.152 0.112 0.005 0.004 0.010 0.008 0.015 0.011 0.825 0.651 2.011 2.173 2.011 4.181v2.133h3.732v-12.885c-0.918-0.238-1.599-1.065-1.599-2.056 0-1.177 0.954-2.132 2.132-2.132s2.132 0.955 2.132 2.132c0 0.992-0.681 1.819-1.599 2.056v12.885h3.732v-2.133c0-2.133 1.232-3.663 2.132-4.271l-0.003-0.003c2.589-1.944 4.268-5.033 4.268-8.52 0-5.888-4.773-10.662-10.662-10.662s-10.662 4.774-10.662 10.662c0 3.468 1.661 6.542 4.225 8.487l-0.005 0.003z" fill="#000000"></path>
<path d="M6.735 27.186h8.53v4.283h-8.53v-4.283z" fill="#000000"></path>
</svg>
