<?xml version="1.0" encoding="utf-8"?>
<!-- Generated by IcoMoon.io -->
<!DOCTYPE svg PUBLIC "-//W3C//DTD SVG 1.1//EN" "http://www.w3.org/Graphics/SVG/1.1/DTD/svg11.dtd">
<svg version="1.1" xmlns="http://www.w3.org/2000/svg" xmlns:xlink="http://www.w3.org/1999/xlink" width="27" height="32" viewBox="0 0 27 32">
<g id="icomoon-ignore">
</g>
<path d="M27.289 15.654c0-1.29-1.021-2.284-2.376-2.284h-8.545c0.546-1.266 1.526-3.923 1.526-6.666 0-3.131-1.571-3.788-2.889-3.788-0.816 0-1.998 0.619-1.998 1.738 0 0.473-0.074 4.676-2.642 6.829-2.735 2.294-3.512 2.894-5.011 2.894-1.746 0-4.852 0.038-4.852 0.038l-0.518 0.007v12.219h5.718c0.371 0 1.486 0.496 2.468 0.933 1.623 0.723 3.463 1.542 4.701 1.542l8.259-0.003c1.345 0 2.439-1.057 2.439-2.357 0-0.529-0.189-1.013-0.494-1.407 0.985-0.282 1.713-1.181 1.713-2.256 0-0.54-0.19-1.032-0.496-1.431 0.97-0.31 1.679-1.209 1.679-2.28 0-0.538-0.185-1.032-0.485-1.433 1.033-0.258 1.803-1.186 1.803-2.297z" fill="#000000"></path>
</svg>
