<?xml version="1.0" encoding="utf-8"?>
<!-- Generated by IcoMoon.io -->
<!DOCTYPE svg PUBLIC "-//W3C//DTD SVG 1.1//EN" "http://www.w3.org/Graphics/SVG/1.1/DTD/svg11.dtd">
<svg version="1.1" xmlns="http://www.w3.org/2000/svg" xmlns:xlink="http://www.w3.org/1999/xlink" width="26" height="32" viewBox="0 0 26 32">
<g id="icomoon-ignore">
</g>
<path d="M20.997 9.612v8.257l4.129-4.129z" fill="#000000"></path>
<path d="M13.879 2.494c-0.47-0.47-1.289-0.47-1.759 0l-1.774 1.774h5.307l-1.774-1.774z" fill="#000000"></path>
<path d="M5.004 9.61l-4.172 4.171 4.172 4.172z" fill="#000000"></path>
<path d="M7.662 22.279l0.079-0.080-7.003-7.003v14.005l6.923-6.923z" fill="#000000"></path>
<path d="M23.596 29.044h-0.003l-9.714-9.714c-0.47-0.47-1.289-0.47-1.759 0l-10.532 10.529h22.822l-0.814-0.814z" fill="#000000"></path>
<path d="M18.216 22.158l0.121 0.121 0.002-0.002 6.923 6.924v-14.089z" fill="#000000"></path>
<path d="M11.367 18.575c0.436-0.436 1.016-0.677 1.633-0.677s1.197 0.241 1.633 0.677l2.829 2.829 2.469-2.469v-10.39l-3.211-3.212h-10.649v13.685l2.426 2.426 2.871-2.87zM9.268 8.533h7.464v1.066h-7.464v-1.066zM9.268 11.732h5.331v1.066h-5.331v-1.066zM9.268 14.931h7.464v1.066h-7.464v-1.066z" fill="#000000"></path>
</svg>
