<?xml version="1.0" encoding="utf-8"?>
<!-- Generated by IcoMoon.io -->
<!DOCTYPE svg PUBLIC "-//W3C//DTD SVG 1.1//EN" "http://www.w3.org/Graphics/SVG/1.1/DTD/svg11.dtd">
<svg version="1.1" xmlns="http://www.w3.org/2000/svg" xmlns:xlink="http://www.w3.org/1999/xlink" width="19" height="32" viewBox="0 0 19 32">
<g id="icomoon-ignore">
</g>
<path d="M9.451 10.766c1.641 0 3.188 0.389 4.573 1.062 0.835-2.023 2.253-5.588 2.253-6.455v-4.059h-6.301v8.234h-1.050v-8.234h-6.301v4.059c0 0.868 1.405 4.446 2.228 6.467 1.391-0.681 2.947-1.075 4.598-1.075z" fill="#000000"></path>
<path d="M18.858 20.406c-0.007-0.082-0.016-0.163-0.027-0.244-0.026-0.219-0.058-0.436-0.098-0.65-0.013-0.069-0.023-0.14-0.038-0.208-0.055-0.262-0.123-0.52-0.199-0.774-0.027-0.085-0.056-0.168-0.084-0.251-0.058-0.173-0.121-0.345-0.189-0.514-0.041-0.102-0.082-0.204-0.126-0.305-0.072-0.163-0.15-0.321-0.231-0.478-0.085-0.167-0.176-0.331-0.272-0.492-0.067-0.114-0.133-0.228-0.205-0.338-0.084-0.129-0.171-0.256-0.261-0.38-0.053-0.074-0.108-0.146-0.163-0.217-0.35-0.457-0.737-0.883-1.163-1.269-0.023-0.020-0.044-0.041-0.067-0.061-0.635-0.565-1.346-1.047-2.116-1.427v-0.001c-1.259-0.621-2.671-0.979-4.17-0.979-1.511 0-2.933 0.364-4.2 0.994-0.762 0.379-1.464 0.859-2.093 1.42-0.029 0.026-0.057 0.051-0.085 0.077-0.417 0.381-0.798 0.8-1.14 1.25-0.056 0.074-0.114 0.148-0.168 0.224-0.088 0.123-0.173 0.248-0.256 0.375-0.072 0.111-0.139 0.226-0.206 0.34-0.091 0.154-0.178 0.311-0.26 0.471-0.084 0.164-0.165 0.328-0.24 0.497-0.043 0.1-0.084 0.201-0.125 0.302-0.067 0.169-0.129 0.34-0.187 0.513-0.029 0.085-0.059 0.168-0.085 0.253-0.076 0.253-0.144 0.511-0.199 0.773-0.014 0.068-0.024 0.136-0.037 0.205-0.040 0.215-0.074 0.433-0.1 0.653-0.009 0.081-0.019 0.161-0.027 0.242-0.026 0.284-0.043 0.571-0.043 0.862 0 5.22 4.231 9.451 9.451 9.451s9.451-4.231 9.451-9.451c-0-0.291-0.018-0.578-0.044-0.862zM9.451 27.568c-3.48 0-6.301-2.82-6.301-6.301s2.821-6.3 6.301-6.3c3.48 0 6.301 2.821 6.301 6.3s-2.821 6.301-6.301 6.301z" fill="#000000"></path>
<path d="M9.451 16.017c-2.895 0-5.251 2.355-5.251 5.25s2.356 5.251 5.251 5.251c2.895 0 5.251-2.355 5.251-5.251s-2.356-5.25-5.251-5.25z" fill="#000000"></path>
</svg>
