<?xml version="1.0" encoding="utf-8"?>
<!-- Generated by IcoMoon.io -->
<!DOCTYPE svg PUBLIC "-//W3C//DTD SVG 1.1//EN" "http://www.w3.org/Graphics/SVG/1.1/DTD/svg11.dtd">
<svg version="1.1" xmlns="http://www.w3.org/2000/svg" xmlns:xlink="http://www.w3.org/1999/xlink" width="32" height="32" viewBox="0 0 32 32">
<g id="icomoon-ignore">
</g>
<path d="M6.404 16c0 1.767-1.432 3.199-3.199 3.199s-3.199-1.432-3.199-3.199c0-1.767 1.432-3.199 3.199-3.199s3.199 1.432 3.199 3.199z" fill="#000000"></path>
<path d="M31.994 16c0 1.767-1.432 3.199-3.199 3.199s-3.199-1.432-3.199-3.199c0-1.767 1.432-3.199 3.199-3.199s3.199 1.432 3.199 3.199z" fill="#000000"></path>
<path d="M19.199 16c0 1.767-1.432 3.199-3.199 3.199s-3.199-1.432-3.199-3.199c0-1.767 1.432-3.199 3.199-3.199s3.199 1.432 3.199 3.199z" fill="#000000"></path>
</svg>
