<?xml version="1.0" encoding="utf-8"?>
<!-- Generated by IcoMoon.io -->
<!DOCTYPE svg PUBLIC "-//W3C//DTD SVG 1.1//EN" "http://www.w3.org/Graphics/SVG/1.1/DTD/svg11.dtd">
<svg version="1.1" xmlns="http://www.w3.org/2000/svg" xmlns:xlink="http://www.w3.org/1999/xlink" width="16" height="32" viewBox="0 0 16 32">
<g id="icomoon-ignore">
</g>
<path d="M0.003 24.229c0 4.288 3.58 7.765 7.997 7.765s7.997-3.477 7.997-7.765v-6.096h-15.994v6.096z" fill="#000000"></path>
<path d="M7.467 8.562c-4.167 0.268-7.464 3.626-7.464 7.739v0.765h7.464v-8.504z" fill="#000000"></path>
<path d="M8.533 6.915c0-0.487 1.029-1.131 1.855-1.649 1.184-0.741 2.409-1.509 2.409-2.627v-2.633h-1.066v2.633c0 0.527-1.058 1.19-1.909 1.723-1.158 0.725-2.356 1.475-2.356 2.552v1.621h1.066v-1.621z" fill="#000000"></path>
<path d="M8.533 8.562v8.504h7.464v-0.765c0-4.114-3.297-7.472-7.464-7.739z" fill="#000000"></path>
</svg>
