<?xml version="1.0" encoding="utf-8"?>
<!-- Generated by IcoMoon.io -->
<!DOCTYPE svg PUBLIC "-//W3C//DTD SVG 1.1//EN" "http://www.w3.org/Graphics/SVG/1.1/DTD/svg11.dtd">
<svg version="1.1" xmlns="http://www.w3.org/2000/svg" xmlns:xlink="http://www.w3.org/1999/xlink" width="28" height="32" viewBox="0 0 28 32">
<g id="icomoon-ignore">
</g>
<path d="M6.003 17.599h-5.331c0 0 0 6.589 0 8.718 0 1.899 1.574 2.802 2.958 2.976 1.412-0.167 2.373-1.29 2.373-2.318v-9.377z" fill="#000000"></path>
<path d="M7.069 2.672v24.304c0 0.836-0.391 1.701-1.072 2.352 4.445 0 15.043 0 18.132 0 1.616 0 3.199-1.572 3.199-3.199 0-1.174 0-23.457 0-23.457h-20.259zM24.129 25.063h-13.861v-1.066h13.861v1.066zM24.129 21.331h-13.861v-1.066h13.861v1.066zM24.129 17.599h-13.861v-7.997h13.861v7.997zM24.129 6.937h-13.861v-1.066h13.861v1.066z" fill="#000000"></path>
</svg>
