<?xml version="1.0" encoding="utf-8"?>
<!-- Generated by IcoMoon.io -->
<!DOCTYPE svg PUBLIC "-//W3C//DTD SVG 1.1//EN" "http://www.w3.org/Graphics/SVG/1.1/DTD/svg11.dtd">
<svg version="1.1" xmlns="http://www.w3.org/2000/svg" xmlns:xlink="http://www.w3.org/1999/xlink" width="25" height="32" viewBox="0 0 25 32">
<g id="icomoon-ignore">
</g>
<path d="M7.694 8.403h9.814c-0.454-1.059-1.245-1.951-2.277-2.538l-0.53-0.301v-1.886c0-1.158-0.943-2.1-2.1-2.1s-2.1 0.942-2.1 2.1v1.885l-0.531 0.302c-1.031 0.587-1.821 1.479-2.276 2.538z" fill="#000000"></path>
<path d="M15.705 3.153l0.047 1.050v0.75c1.64 0.933 2.827 2.569 3.15 4.501h-12.602c0.323-1.932 1.511-3.568 3.15-4.501v-0.75l0.047-1.050h-9.498v27.303h25.203v-27.303h-9.498zM14.702 23.105h-8.401v-1.050h8.401v1.050h0zM18.902 18.905h-12.602v-1.050h12.602v1.050zM18.902 14.704h-12.602v-1.050h12.602v1.050z" fill="#000000"></path>
</svg>
