<?xml version="1.0" encoding="utf-8"?>
<!-- Generated by IcoMoon.io -->
<!DOCTYPE svg PUBLIC "-//W3C//DTD SVG 1.1//EN" "http://www.w3.org/Graphics/SVG/1.1/DTD/svg11.dtd">
<svg version="1.1" xmlns="http://www.w3.org/2000/svg" xmlns:xlink="http://www.w3.org/1999/xlink" width="26" height="32" viewBox="0 0 26 32">
<g id="icomoon-ignore">
</g>
<path d="M24.995 5.338v-1.654c0-1.442-1.169-2.611-2.611-2.611h-17.167c-1.442 0-2.611 1.169-2.611 2.611v1.654h-0.489c-1.204 0-2.179 0.976-2.179 2.179v3.649c0 1.203 0.975 2.179 2.179 2.179l10.036-0.003c0.614 0 1.113 0.499 1.113 1.113v3.679h-2.131v12.795h5.331v-12.795h-2.134v-3.679c0-1.203-0.976-2.179-2.179-2.179h-1.32v0.003h-8.716c-0.613 0-1.113-0.499-1.113-1.113v-3.649c0-0.613 0.499-1.113 1.113-1.113h0.489v1.654c0 1.442 1.169 2.611 2.611 2.611h17.167c1.442 0 2.611-1.169 2.611-2.611v-1.654h1.066v-1.066h-1.066z" fill="#000000"></path>
</svg>
