<?xml version="1.0" encoding="utf-8"?>
<!-- Generated by IcoMoon.io -->
<!DOCTYPE svg PUBLIC "-//W3C//DTD SVG 1.1//EN" "http://www.w3.org/Graphics/SVG/1.1/DTD/svg11.dtd">
<svg version="1.1" xmlns="http://www.w3.org/2000/svg" xmlns:xlink="http://www.w3.org/1999/xlink" width="27" height="32" viewBox="0 0 27 32">
<g id="icomoon-ignore">
</g>
<path d="M2.034 5.91c1.311-1.311 3.053-2.033 4.907-2.033v0c1.854 0 3.597 0.722 4.907 2.033l14.050 14.050c1.872 1.872 1.872 4.919 0 6.791-0.907 0.908-2.113 1.407-3.395 1.407s-2.489-0.499-3.395-1.407l-6.204-6.202 0.005-0.005-7.415-7.415c-0.504-0.503-0.78-1.172-0.78-1.883s0.277-1.38 0.78-1.883c0.502-0.503 1.171-0.78 1.883-0.78s1.38 0.277 1.883 0.78l11.884 11.883-0.742 0.742-11.884-11.883c-0.609-0.609-1.672-0.609-2.281 0-0.305 0.305-0.473 0.71-0.473 1.141s0.168 0.836 0.473 1.141l13.613 13.623c0.709 0.709 1.65 1.099 2.653 1.099s1.944-0.39 2.653-1.099c1.462-1.462 1.462-3.843 0-5.306l-14.050-14.050c-1.113-1.113-2.591-1.725-4.165-1.725s-3.052 0.613-4.165 1.725c-1.113 1.112-1.726 2.591-1.726 4.165s0.613 3.052 1.726 4.165l12.315 12.315-0.742 0.742-12.315-12.315c-1.312-1.311-2.034-3.053-2.034-4.908s0.722-3.596 2.034-4.907z" fill="#000000"></path>
</svg>
