<?xml version="1.0" encoding="utf-8"?>
<!-- Generated by IcoMoon.io -->
<!DOCTYPE svg PUBLIC "-//W3C//DTD SVG 1.1//EN" "http://www.w3.org/Graphics/SVG/1.1/DTD/svg11.dtd">
<svg version="1.1" xmlns="http://www.w3.org/2000/svg" xmlns:xlink="http://www.w3.org/1999/xlink" width="30" height="32" viewBox="0 0 30 32">
<g id="icomoon-ignore">
</g>
<path d="M13.987 10.687c0.136 0 0.273-0.052 0.377-0.156l8.262-8.262 1.078 1.078-5.3 5.3 4.251 4.25 7.094-7.094-4.251-4.251-1.041 1.041-1.455-1.455c-0.208-0.208-0.546-0.208-0.754 0l-8.639 8.639c-0.208 0.208-0.208 0.546 0 0.754 0.104 0.104 0.241 0.156 0.377 0.156z" fill="#000000"></path>
<path d="M21.902 13.651l-4.251-4.25-12.264 12.264 1.235 1.235c-0.52-0.257-1.086-0.388-1.653-0.388-0.956 0-1.913 0.365-2.644 1.095-0.075 0.074-0.146 0.154-0.216 0.238-0.034 0.040-0.067 0.082-0.098 0.123-0.037 0.047-0.072 0.096-0.107 0.146-0.026 0.036-0.052 0.072-0.075 0.108-1.137 1.709-1.477 4.555-1.578 5.956l3.497-3.497 0.754 0.754-3.582 3.581c1.472-0.027 4.864-0.295 6.693-2.124 1.163-1.163 1.396-2.9 0.707-4.297l1.319 1.319 12.265-12.265z" fill="#000000"></path>
</svg>
