<?xml version="1.0" encoding="utf-8"?>
<!-- Generated by IcoMoon.io -->
<!DOCTYPE svg PUBLIC "-//W3C//DTD SVG 1.1//EN" "http://www.w3.org/Graphics/SVG/1.1/DTD/svg11.dtd">
<svg version="1.1" xmlns="http://www.w3.org/2000/svg" xmlns:xlink="http://www.w3.org/1999/xlink" width="30" height="32" viewBox="0 0 30 32">
<g id="icomoon-ignore">
</g>
<path d="M16 6.827c0-0.16 0-0.267 0-0.427 0-2.667-2.133-4.8-4.8-4.8s-4.8 2.133-4.8 4.8c0 0.96 0.267 1.813 0.747 2.56 3.2-1.973 6.72-2.24 8.853-2.133z" fill="#000000"></path>
<path d="M27.787 14.933h-0.587c-0.8-2.080-2.4-3.84-4.533-5.12 0-2.827 0.267-3.467 0.853-5.28-2.187 0.32-4.373 1.653-5.493 3.573-0.107 0-0.16 0-0.267-0.053v0c-0.053 0-6.827-1.387-11.68 2.88-1.227 1.067-2.24 2.293-2.827 3.733-1.44-0.533-2.24-1.333-2.24-2.347 0-1.12 0.907-2.133 1.707-2.4l-0.32-1.013c-1.28 0.48-2.4 1.973-2.4 3.413 0 0.853 0.373 2.453 2.933 3.413-0.213 0.693-0.267 1.387-0.267 2.133 0 2.667 1.333 5.12 3.467 6.933l-0.64 1.867c-0.427 1.227 0.213 2.613 1.493 3.040l1.493 0.533c0.267 0.107 0.533 0.16 0.8 0.16 1.013 0 1.92-0.64 2.293-1.6l0.427-1.227c1.067 0.213 2.133 0.373 3.307 0.373 0.747 0 1.493-0.053 2.187-0.16l0.64 1.333c0.427 0.853 1.28 1.333 2.187 1.333 0.373 0 0.693-0.053 1.067-0.213l1.387-0.693c1.173-0.587 1.707-2.027 1.12-3.2l-0.373-0.8c1.44-0.96 2.56-2.187 3.36-3.627h1.067c1.44 0 2.613-1.173 2.613-2.613v-1.707c-0.16-1.493-1.333-2.667-2.773-2.667zM22.133 17.067c-0.747 0-1.333-0.587-1.333-1.333s0.587-1.333 1.333-1.333c0.747 0 1.333 0.587 1.333 1.333s-0.587 1.333-1.333 1.333z" fill="#000000"></path>
</svg>
