<?xml version="1.0" encoding="utf-8"?>
<!-- Generated by IcoMoon.io -->
<!DOCTYPE svg PUBLIC "-//W3C//DTD SVG 1.1//EN" "http://www.w3.org/Graphics/SVG/1.1/DTD/svg11.dtd">
<svg version="1.1" xmlns="http://www.w3.org/2000/svg" xmlns:xlink="http://www.w3.org/1999/xlink" width="27" height="32" viewBox="0 0 27 32">
<g id="icomoon-ignore">
</g>
<path d="M8.009 2.285l0.353 0.55c0.806 1.26 0.685 2.776 0.575 3.445 4.342 3.748 7.463 6.402 8.288 7.051 2.703-1.21 5.863-1.406 8.695-0.537l0.835 0.256-7.639 7.639 8.318 8.318-0.742 0.742-8.318-8.318-7.639 7.639-0.255-0.835c-0.884-2.882-0.691-5.957 0.537-8.695-0.65-0.828-3.312-3.958-7.068-8.308-0.286 0.029-0.566 0.044-0.837 0.044-1.686 0-2.518-0.558-2.607-0.621l-0.506-0.36 8.009-8.010z" fill="#000000"></path>
</svg>
