<?xml version="1.0" encoding="utf-8"?>
<!-- Generated by IcoMoon.io -->
<!DOCTYPE svg PUBLIC "-//W3C//DTD SVG 1.1//EN" "http://www.w3.org/Graphics/SVG/1.1/DTD/svg11.dtd">
<svg version="1.1" xmlns="http://www.w3.org/2000/svg" xmlns:xlink="http://www.w3.org/1999/xlink" width="29" height="32" viewBox="0 0 29 32">
<g id="icomoon-ignore">
</g>
<path d="M14.4 10.773c-1.813 0-3.2 0.853-3.2 1.6s1.387 1.6 3.2 1.6 3.2-0.853 3.2-1.6c0-0.747-1.387-1.6-3.2-1.6z" fill="#000000"></path>
<path d="M22.933 10.773c1.813 0 3.2-0.853 3.2-1.6s-1.387-1.6-3.2-1.6c-1.813 0-3.2 0.853-3.2 1.6s1.387 1.6 3.2 1.6z" fill="#000000"></path>
<path d="M14.4 7.573c1.813 0 3.2-0.853 3.2-1.6s-1.387-1.6-3.2-1.6-3.2 0.853-3.2 1.6 1.387 1.6 3.2 1.6z" fill="#000000"></path>
<path d="M6.4 10.773c1.813 0 3.2-0.853 3.2-1.6s-1.387-1.6-3.2-1.6c-1.813 0-3.2 0.853-3.2 1.6s1.387 1.6 3.2 1.6z" fill="#000000"></path>
<path d="M14.933 17.813v9.813l13.867-5.973v-9.813z" fill="#000000"></path>
<path d="M0 21.653l13.867 5.973v-9.813l-13.867-6.027z" fill="#000000"></path>
<path d="M26.827 10.293c0 0 0 0 0 0v0c-0.693 0.907-2.187 1.493-3.893 1.493-2.347 0-4.267-1.173-4.267-2.667 0-0.693 0.427-1.333 1.173-1.813l-1.333-0.587c0 0 0 0 0 0v0c-0.533 1.12-2.133 1.92-4.107 1.92-1.92 0-3.573-0.8-4.107-1.92l-1.067 0.427c0.853 0.48 1.387 1.173 1.387 1.973 0 1.493-1.92 2.667-4.267 2.667-1.813 0-3.36-0.693-3.947-1.707l-1.813 0.8 13.813 5.973 13.92-5.973-1.493-0.587zM14.4 15.040c-2.347 0-4.267-1.173-4.267-2.667s1.92-2.667 4.267-2.667c2.347 0 4.267 1.173 4.267 2.667 0 1.44-1.92 2.667-4.267 2.667z" fill="#000000"></path>
</svg>
