<?xml version="1.0" encoding="utf-8"?>
<!-- Generated by IcoMoon.io -->
<!DOCTYPE svg PUBLIC "-//W3C//DTD SVG 1.1//EN" "http://www.w3.org/Graphics/SVG/1.1/DTD/svg11.dtd">
<svg version="1.1" xmlns="http://www.w3.org/2000/svg" xmlns:xlink="http://www.w3.org/1999/xlink" width="27" height="32" viewBox="0 0 27 32">
<g id="icomoon-ignore">
</g>
<path d="M18.824 18.476l-8.277 8.276-0.004-0.004c-0.031 0.032-0.057 0.066-0.088 0.097-2.149 2.15-5.648 2.15-7.797 0-2.087-2.087-2.141-5.441-0.176-7.602l1.104 1.105 1.744-1.744c2.341 1.117 5.227 0.713 7.166-1.226l2.97-2.97 0.742 0.742 0.742-0.742-2.97-2.97 4.455-4.455-0.742-0.742-4.455 4.455-2.97-2.97 4.455-4.455-0.743-0.742-4.455 4.455-2.971-2.97-0.742 0.742 0.742 0.742-2.97 2.97c-1.939 1.939-2.343 4.825-1.227 7.167l-1.743 1.744 1.123 1.123c-2.374 2.571-2.32 6.591 0.176 9.087 2.559 2.559 6.722 2.559 9.282 0l8.369-8.369c1.834-1.834 4.818-1.834 6.651 0l0.742-0.742c-2.243-2.243-5.894-2.243-8.136 0z" fill="#000000"></path>
</svg>
