<?xml version="1.0" encoding="utf-8"?>
<!-- Generated by IcoMoon.io -->
<!DOCTYPE svg PUBLIC "-//W3C//DTD SVG 1.1//EN" "http://www.w3.org/Graphics/SVG/1.1/DTD/svg11.dtd">
<svg version="1.1" xmlns="http://www.w3.org/2000/svg" xmlns:xlink="http://www.w3.org/1999/xlink" width="28" height="32" viewBox="0 0 28 32">
<g id="icomoon-ignore">
</g>
<path d="M6.536 2.672h14.928v4.265h-14.928v-4.265z" fill="#000000"></path>
<path d="M7.603 18.666h12.795v10.663h-12.795v-10.663z" fill="#000000"></path>
<path d="M27.328 8.003h-26.656c-0.295 0-0.533 0.238-0.533 0.533v15.994c0 0.295 0.238 0.533 0.533 0.533h5.864v-7.464h14.928v7.464h5.864c0.295 0 0.533-0.238 0.533-0.533v-15.994c0-0.295-0.238-0.533-0.533-0.533zM5.47 14.401c-0.589 0-1.066-0.477-1.066-1.066s0.477-1.066 1.066-1.066 1.066 0.477 1.066 1.066c0 0.589-0.477 1.066-1.066 1.066zM8.669 14.401c-0.589 0-1.066-0.477-1.066-1.066s0.477-1.066 1.066-1.066 1.066 0.477 1.066 1.066c0 0.589-0.477 1.066-1.066 1.066z" fill="#000000"></path>
</svg>
