<?xml version="1.0" encoding="utf-8"?>
<!-- Generated by IcoMoon.io -->
<!DOCTYPE svg PUBLIC "-//W3C//DTD SVG 1.1//EN" "http://www.w3.org/Graphics/SVG/1.1/DTD/svg11.dtd">
<svg version="1.1" xmlns="http://www.w3.org/2000/svg" xmlns:xlink="http://www.w3.org/1999/xlink" width="28" height="32" viewBox="0 0 28 32">
<g id="icomoon-ignore">
</g>
<path d="M26.114 9.098c-0.011-0.004-0.019-0.012-0.031-0.015l-22.623-5.331c-0.287-0.066-0.574 0.11-0.641 0.397s0.11 0.574 0.397 0.641l18.159 4.279h-19.207c-0.825 0-1.495 0.669-1.495 1.495v16.204c0 0.825 0.67 1.494 1.495 1.494h23.667c0.826 0 1.495-0.669 1.495-1.494v-16.203c0-0.729-0.523-1.335-1.214-1.466zM15.867 14.4c0.441 0 0.799 0.359 0.799 0.8s-0.358 0.799-0.799 0.799c-0.442 0-0.8-0.358-0.8-0.799s0.358-0.8 0.8-0.8zM13.2 16c0.441 0 0.8 0.359 0.8 0.799 0 0.442-0.358 0.8-0.8 0.8-0.44 0-0.8-0.358-0.8-0.8 0-0.44 0.359-0.799 0.8-0.799zM6.803 12.268c0.443 0 0.8 0.358 0.8 0.8 0 0.441-0.357 0.799-0.8 0.799-0.44 0-0.8-0.358-0.8-0.799s0.36-0.8 0.8-0.8zM2.804 18.398c0-0.442 0.359-0.8 0.799-0.8s0.8 0.358 0.8 0.8c0 0.44-0.359 0.8-0.8 0.8s-0.799-0.359-0.799-0.8zM4.67 22.412c-0.441 0-0.8-0.358-0.8-0.8s0.359-0.8 0.8-0.8c0.44 0 0.8 0.358 0.8 0.8s-0.359 0.8-0.8 0.8zM4.67 16c-0.441 0-0.8-0.358-0.8-0.799s0.359-0.8 0.8-0.8c0.44 0 0.8 0.359 0.8 0.8s-0.359 0.799-0.8 0.799zM6.762 24.53c-0.44 0-0.8-0.359-0.8-0.8s0.36-0.799 0.8-0.799c0.443 0 0.8 0.358 0.8 0.799s-0.357 0.8-0.8 0.8zM7.335 20.753c-0.44 0-0.799-0.359-0.799-0.8s0.359-0.799 0.799-0.799c0.441 0 0.8 0.358 0.8 0.799s-0.359 0.8-0.8 0.8zM7.335 17.599c-0.44 0-0.799-0.358-0.799-0.8 0-0.44 0.359-0.799 0.799-0.799s0.8 0.359 0.8 0.799c0 0.442-0.359 0.8-0.8 0.8zM10.263 25.596c-0.441 0-0.8-0.359-0.8-0.8s0.359-0.8 0.8-0.8c0.441 0 0.799 0.359 0.799 0.8s-0.358 0.8-0.799 0.8zM10.263 22.412c-0.441 0-0.8-0.359-0.8-0.8 0-0.442 0.359-0.8 0.8-0.8s0.799 0.358 0.799 0.8c0 0.441-0.358 0.8-0.799 0.8zM10.264 19.198c-0.441 0-0.801-0.359-0.801-0.8 0-0.442 0.359-0.8 0.801-0.8 0.44 0 0.799 0.358 0.799 0.8 0 0.44-0.358 0.8-0.799 0.8zM10.263 16c-0.441 0-0.8-0.358-0.8-0.799s0.359-0.8 0.8-0.8c0.441 0 0.799 0.359 0.799 0.8s-0.358 0.799-0.799 0.799zM10.263 12.801c-0.441 0-0.8-0.359-0.8-0.8s0.359-0.799 0.8-0.799c0.441 0 0.799 0.358 0.799 0.799s-0.358 0.8-0.799 0.8zM12.401 19.998c0-0.441 0.359-0.799 0.8-0.799 0.441 0 0.8 0.358 0.8 0.799s-0.358 0.8-0.8 0.8c-0.44-0-0.8-0.359-0.8-0.8zM13.713 24.53c-0.441 0-0.8-0.359-0.8-0.8s0.359-0.799 0.8-0.799c0.442 0 0.8 0.358 0.8 0.799s-0.358 0.8-0.8 0.8zM13.713 13.867c-0.441 0-0.8-0.358-0.8-0.799s0.359-0.8 0.8-0.8c0.442 0 0.8 0.358 0.8 0.8 0 0.441-0.358 0.799-0.8 0.799zM15.867 22.412c-0.442 0-0.8-0.358-0.8-0.8s0.358-0.8 0.8-0.8c0.441 0 0.799 0.358 0.799 0.8s-0.358 0.8-0.799 0.8zM16.933 19.198c-0.44 0-0.8-0.359-0.8-0.8 0-0.442 0.36-0.8 0.8-0.8 0.442 0 0.799 0.358 0.799 0.8 0 0.44-0.357 0.8-0.799 0.8zM22.531 19.731c-0.883 0-1.6-0.716-1.6-1.599s0.717-1.599 1.6-1.599c0.882 0 1.598 0.716 1.598 1.599s-0.716 1.599-1.598 1.599zM22.531 15.466c-0.883 0-1.6-0.716-1.6-1.599s0.717-1.599 1.6-1.599c0.882 0 1.598 0.716 1.598 1.599s-0.716 1.599-1.598 1.599z" fill="#000000"></path>
</svg>
