<?xml version="1.0" encoding="utf-8"?>
<!-- Generated by IcoMoon.io -->
<!DOCTYPE svg PUBLIC "-//W3C//DTD SVG 1.1//EN" "http://www.w3.org/Graphics/SVG/1.1/DTD/svg11.dtd">
<svg version="1.1" xmlns="http://www.w3.org/2000/svg" xmlns:xlink="http://www.w3.org/1999/xlink" width="32" height="32" viewBox="0 0 32 32">
<g id="icomoon-ignore">
</g>
<path d="M26.145 14.395c0.002-0.085 0.012-0.168 0.012-0.253 0-4.563-3.7-8.263-8.263-8.263-3.288 0-6.12 1.926-7.45 4.706-0.575-0.29-1.223-0.456-1.911-0.456-2.111 0-3.859 1.535-4.2 3.549-2.514 0.862-4.324 3.241-4.324 6.048 0 3.531 2.862 6.393 6.392 6.397l19.756-0.002c3.225-0.017 5.834-2.634 5.834-5.862 0-3.233-2.615-5.853-5.846-5.863zM16 22.39c-2.65 0-4.798-2.149-4.798-4.798s2.148-4.798 4.798-4.798v-1.599l4.012 2.318-4.012 2.317v-1.969c-2.058 0-3.732 1.674-3.732 3.732s1.674 3.732 3.732 3.732c2.058 0 3.732-1.674 3.732-3.732h1.066c0 2.649-2.149 4.798-4.798 4.798z" fill="#000000"></path>
</svg>
