<?xml version="1.0" encoding="utf-8"?>
<!-- Generated by IcoMoon.io -->
<!DOCTYPE svg PUBLIC "-//W3C//DTD SVG 1.1//EN" "http://www.w3.org/Graphics/SVG/1.1/DTD/svg11.dtd">
<svg version="1.1" xmlns="http://www.w3.org/2000/svg" xmlns:xlink="http://www.w3.org/1999/xlink" width="21" height="32" viewBox="0 0 21 32">
<g id="icomoon-ignore">
</g>
<path d="M10.667 0c-3.36 2.080-5.333 6.133-5.333 9.173 0 0.64 0 1.813 0 3.253 0 1.92 0 4.32 0 6.56v6.613h10.667v-6.667c0-2.24 0-4.64 0-6.56 0-1.44 0-2.56 0-3.253 0-2.987-1.973-7.040-5.333-9.12zM10.667 12.267c-1.173 0-2.133-0.96-2.133-2.133s0.96-2.133 2.133-2.133 2.133 0.96 2.133 2.133-0.96 2.133-2.133 2.133z" fill="#000000"></path>
<path d="M10.133 26.667h1.067v5.333h-1.067v-5.333z" fill="#000000"></path>
<path d="M12.8 26.667h1.067v3.2h-1.067v-3.2z" fill="#000000"></path>
<path d="M7.467 26.667h1.067v3.2h-1.067v-3.2z" fill="#000000"></path>
<path d="M17.067 20.267v5.333h4.267z" fill="#000000"></path>
<path d="M4.267 25.6v-5.333l-4.267 5.333z" fill="#000000"></path>
</svg>
