<?xml version="1.0" encoding="utf-8"?>
<!-- Generated by IcoMoon.io -->
<!DOCTYPE svg PUBLIC "-//W3C//DTD SVG 1.1//EN" "http://www.w3.org/Graphics/SVG/1.1/DTD/svg11.dtd">
<svg version="1.1" xmlns="http://www.w3.org/2000/svg" xmlns:xlink="http://www.w3.org/1999/xlink" width="26" height="32" viewBox="0 0 26 32">
<g id="icomoon-ignore">
</g>
<path d="M0 3.94v24.153h26.253v-24.153h-26.253zM3.15 18.708v3.15h-1.050v-4.2h1.050v1.050zM3.15 11.291v3.15h-1.050v-4.201h1.050v1.050zM22.053 24.943h-17.852v-17.852h17.852v17.852h0z" fill="#000000"></path>
<path d="M21.003 8.141h-15.752v15.752h15.752v-15.752zM13.127 20.742c-2.431 0-4.433-1.838-4.695-4.201h-1.081v-1.050h1.081c0.261-2.363 2.263-4.2 4.695-4.2 2.61 0 4.726 2.116 4.726 4.726s-2.116 4.726-4.726 4.726z" fill="#000000"></path>
<path d="M13.127 12.341c-1.848 0-3.377 1.372-3.633 3.15h3.633v1.050h-3.633c0.256 1.778 1.785 3.15 3.633 3.15 2.026 0 3.675-1.649 3.675-3.675s-1.649-3.675-3.675-3.675z" fill="#000000"></path>
</svg>
