<?xml version="1.0" encoding="utf-8"?>
<!-- Generated by IcoMoon.io -->
<!DOCTYPE svg PUBLIC "-//W3C//DTD SVG 1.1//EN" "http://www.w3.org/Graphics/SVG/1.1/DTD/svg11.dtd">
<svg version="1.1" xmlns="http://www.w3.org/2000/svg" xmlns:xlink="http://www.w3.org/1999/xlink" width="29" height="32" viewBox="0 0 29 32">
<g id="icomoon-ignore">
</g>
<path d="M13.549 18.175l15.669 0.119-0.9-0.905c-0.067-0.067-6.681-6.538-15.532-0.335l-2.808-4.124c0.356-0.296 0.663-0.663 0.895-1.097 0.956-1.792 0.278-4.017-1.513-4.973-1.792-0.956-4.018-0.279-4.973 1.513-0.956 1.791-0.279 4.017 1.513 4.973 1.024 0.546 2.19 0.556 3.18 0.132l2.473 3.631-4.229-0.032c-0.139-1.151-0.817-2.218-1.918-2.805-1.792-0.956-4.017-0.278-4.973 1.513-0.956 1.79-0.279 4.017 1.513 4.973 1.791 0.955 4.018 0.277 4.973-1.513 0.193-0.36 0.315-0.738 0.379-1.118l4.909 0.037c-0.119 2.626 0.355 4.717 1.131 6.393h-1.787v1.050h7.351v-1.050h-1.008l-4.345-6.383zM6.395 12.419c-1.277-0.681-1.762-2.275-1.081-3.552s2.275-1.762 3.552-1.081c1.277 0.681 1.762 2.275 1.080 3.552-0.681 1.278-2.275 1.762-3.551 1.081zM5.993 18.75c-0.681 1.277-2.275 1.762-3.552 1.081-1.277-0.682-1.762-2.275-1.081-3.552 0.682-1.277 2.275-1.762 3.552-1.081 1.277 0.681 1.762 2.275 1.081 3.552z" fill="#000000"></path>
<path d="M7.351 24.558h3.15v1.050h-3.15v-1.050z" fill="#000000"></path>
<path d="M19.952 24.558h3.15v1.050h-3.15v-1.050z" fill="#000000"></path>
<path d="M3.15 24.558h3.15v1.050h-3.15v-1.050z" fill="#000000"></path>
<path d="M24.153 24.558h3.15v1.050h-3.15v-1.050z" fill="#000000"></path>
</svg>
