<?xml version="1.0" encoding="utf-8"?>
<!-- Generated by IcoMoon.io -->
<!DOCTYPE svg PUBLIC "-//W3C//DTD SVG 1.1//EN" "http://www.w3.org/Graphics/SVG/1.1/DTD/svg11.dtd">
<svg version="1.1" xmlns="http://www.w3.org/2000/svg" xmlns:xlink="http://www.w3.org/1999/xlink" width="26" height="32" viewBox="0 0 26 32">
<g id="icomoon-ignore">
</g>
<path d="M18.329 20.009c1.46-1.756 2.339-4.010 2.339-6.471 0-5.595-4.535-10.129-10.129-10.129-5.594 0-10.129 4.535-10.129 10.129 0 5.594 4.536 10.129 10.129 10.129 2.462 0 4.716-0.879 6.471-2.339l7.263 7.263 1.319-1.319-7.263-7.263zM10.538 22.601c-4.998 0-9.063-4.066-9.063-9.063s4.065-9.063 9.063-9.063c4.997 0 9.063 4.066 9.063 9.063s-4.066 9.063-9.063 9.063z" fill="#000000"></path>
<path d="M10.538 5.566c-4.417 0-7.997 3.58-7.997 7.997s3.58 7.997 7.997 7.997c4.416 0 7.997-3.58 7.997-7.997s-3.581-7.997-7.997-7.997z" fill="#000000"></path>
</svg>
