<?xml version="1.0" encoding="utf-8"?>
<!-- Generated by IcoMoon.io -->
<!DOCTYPE svg PUBLIC "-//W3C//DTD SVG 1.1//EN" "http://www.w3.org/Graphics/SVG/1.1/DTD/svg11.dtd">
<svg version="1.1" xmlns="http://www.w3.org/2000/svg" xmlns:xlink="http://www.w3.org/1999/xlink" width="26" height="32" viewBox="0 0 26 32">
<g id="icomoon-ignore">
</g>
<path d="M13 12.497c7.226 0 12.262-2.77 12.262-5.255 0-2.486-5.035-5.255-12.262-5.255s-12.262 2.769-12.262 5.255c0 2.485 5.036 5.255 12.262 5.255z" fill="#000000"></path>
<path d="M0.738 21.538v3.221c0 2.485 5.036 5.254 12.262 5.254s12.262-2.769 12.262-5.254v-3.221c-2.096 2.241-6.796 3.804-12.262 3.804s-10.166-1.563-12.262-3.804z" fill="#000000"></path>
<path d="M0.738 15.7v3.221c0 2.485 5.036 5.254 12.262 5.254s12.262-2.769 12.262-5.254v-3.221c-2.096 2.241-6.796 3.804-12.262 3.804s-10.166-1.563-12.262-3.804z" fill="#000000"></path>
<path d="M0.738 9.861v3.221c0 2.484 5.036 5.254 12.262 5.254s12.262-2.77 12.262-5.254v-3.221c-2.096 2.241-6.796 3.804-12.262 3.804s-10.166-1.563-12.262-3.804z" fill="#000000"></path>
</svg>
