<?xml version="1.0" encoding="utf-8"?>
<!-- Generated by IcoMoon.io -->
<!DOCTYPE svg PUBLIC "-//W3C//DTD SVG 1.1//EN" "http://www.w3.org/Graphics/SVG/1.1/DTD/svg11.dtd">
<svg version="1.1" xmlns="http://www.w3.org/2000/svg" xmlns:xlink="http://www.w3.org/1999/xlink" width="30" height="32" viewBox="0 0 30 32">
<g id="icomoon-ignore">
</g>
<path d="M25.6 18.453l4.267-0.427v-4l-4.267-0.427c-0.267-1.28-0.8-2.453-1.44-3.467l2.4-3.2-2.453-2.453-3.2 2.4c-1.013-0.64-2.187-1.173-3.413-1.44l-0.48-4.267h-4l-0.48 4.267c-1.227 0.267-2.347 0.747-3.36 1.387l-3.307-2.347-2.453 2.453 2.347 3.307c-0.64 1.013-1.12 2.133-1.387 3.36l-4.267 0.48v4l4.267 0.48c0.267 1.227 0.8 2.4 1.44 3.467l-2.4 3.2 2.453 2.453 3.2-2.4c1.013 0.64 2.187 1.173 3.413 1.44l0.533 4.267h4l0.533-4.267c1.227-0.267 2.347-0.747 3.36-1.387l3.253 2.347 2.453-2.453-2.4-3.36c0.64-1.067 1.12-2.187 1.387-3.413z" fill="#000000"></path>
</svg>
