<?xml version="1.0" encoding="utf-8"?>
<!-- Generated by IcoMoon.io -->
<!DOCTYPE svg PUBLIC "-//W3C//DTD SVG 1.1//EN" "http://www.w3.org/Graphics/SVG/1.1/DTD/svg11.dtd">
<svg version="1.1" xmlns="http://www.w3.org/2000/svg" xmlns:xlink="http://www.w3.org/1999/xlink" width="30" height="32" viewBox="0 0 30 32">
<g id="icomoon-ignore">
</g>
<path d="M25.129 2.139c-2.355 0-4.265 1.91-4.265 4.265 0 0.409 0.061 0.803 0.168 1.178l-12.469 5.226c-0.737-1.277-2.114-2.139-3.693-2.139-2.355 0-4.265 1.91-4.265 4.265s1.91 4.265 4.265 4.265c1.234 0 2.343-0.527 3.122-1.366l8.034 5.774c-0.314 0.594-0.494 1.27-0.494 1.988 0 2.356 1.91 4.266 4.265 4.266s4.265-1.91 4.265-4.266c0-2.355-1.91-4.264-4.265-4.264-1.253 0-2.376 0.544-3.157 1.404l-8.023-5.765c0.33-0.605 0.518-1.299 0.518-2.037 0-0.396-0.058-0.778-0.159-1.143l12.478-5.23c0.741 1.26 2.107 2.109 3.675 2.109 2.355 0 4.265-1.91 4.265-4.266 0-2.355-1.91-4.265-4.265-4.265z" fill="#000000"></path>
</svg>
