<?xml version="1.0" encoding="utf-8"?>
<!-- Generated by IcoMoon.io -->
<!DOCTYPE svg PUBLIC "-//W3C//DTD SVG 1.1//EN" "http://www.w3.org/Graphics/SVG/1.1/DTD/svg11.dtd">
<svg version="1.1" xmlns="http://www.w3.org/2000/svg" xmlns:xlink="http://www.w3.org/1999/xlink" width="26" height="32" viewBox="0 0 26 32">
<g id="icomoon-ignore">
</g>
<path d="M12.8 3.2c-7.093 0-12.8 5.707-12.8 12.8s5.707 12.8 12.8 12.8c7.093 0 12.8-5.707 12.8-12.8s-5.707-12.8-12.8-12.8zM17.067 11.733c0.907 0 1.6 0.693 1.6 1.6s-0.747 1.6-1.6 1.6c-0.907 0-1.6-0.693-1.6-1.6s0.747-1.6 1.6-1.6zM8.533 11.733c0.907 0 1.6 0.693 1.6 1.6s-0.747 1.6-1.6 1.6c-0.907 0-1.6-0.693-1.6-1.6s0.747-1.6 1.6-1.6zM19.68 19.733c-1.333 2.613-3.947 4.267-6.88 4.267s-5.6-1.653-6.933-4.267c-0.107-0.267 0-0.587 0.213-0.693 0.267-0.107 0.587 0 0.693 0.213 1.227 2.293 3.467 3.68 6.027 3.68 2.507 0 4.8-1.387 5.973-3.68 0.107-0.267 0.48-0.373 0.693-0.213 0.267 0.107 0.373 0.427 0.213 0.693z" fill="#000000"></path>
</svg>
