<?xml version="1.0" encoding="utf-8"?>
<!-- Generated by IcoMoon.io -->
<!DOCTYPE svg PUBLIC "-//W3C//DTD SVG 1.1//EN" "http://www.w3.org/Graphics/SVG/1.1/DTD/svg11.dtd">
<svg version="1.1" xmlns="http://www.w3.org/2000/svg" xmlns:xlink="http://www.w3.org/1999/xlink" width="32" height="32" viewBox="0 0 32 32">
<g id="icomoon-ignore">
</g>
<path d="M16 8.010c-4.417 0-7.997 3.581-7.997 7.998 0 4.415 3.58 7.996 7.997 7.996s7.997-3.58 7.997-7.996c0-4.416-3.58-7.998-7.997-7.998z" fill="#000000"></path>
<path d="M15.471 0.006h1.066v6.405h-1.066v-6.405z" fill="#000000"></path>
<path d="M15.471 25.604h1.066v6.39h-1.066v-6.39z" fill="#000000"></path>
<path d="M0.006 15.467h6.397v1.066h-6.397v-1.066z" fill="#000000"></path>
<path d="M25.596 15.467h6.398v1.066h-6.398v-1.066z" fill="#000000"></path>
<path d="M26.935 4.281l0.754 0.754-4.458 4.458-0.754-0.754 4.458-4.458z" fill="#000000"></path>
<path d="M5.072 27.653l-0.754-0.754 4.458-4.458 0.754 0.754-4.458 4.458z" fill="#000000"></path>
<path d="M5.072 4.281l4.458 4.458-0.754 0.754-4.458-4.458 0.754-0.754z" fill="#000000"></path>
<path d="M26.937 27.654l-4.458-4.458 0.754-0.754 4.458 4.458-0.754 0.754z" fill="#000000"></path>
</svg>
