<?xml version="1.0" encoding="utf-8"?>
<!-- Generated by IcoMoon.io -->
<!DOCTYPE svg PUBLIC "-//W3C//DTD SVG 1.1//EN" "http://www.w3.org/Graphics/SVG/1.1/DTD/svg11.dtd">
<svg version="1.1" xmlns="http://www.w3.org/2000/svg" xmlns:xlink="http://www.w3.org/1999/xlink" width="26" height="32" viewBox="0 0 26 32">
<g id="icomoon-ignore">
</g>
<path d="M13.056 11.568c-2.355 0-4.266 1.909-4.266 4.266 0 2.355 1.91 4.266 4.266 4.266s4.264-1.91 4.264-4.266c0-2.356-1.909-4.266-4.264-4.266z" fill="#000000"></path>
<path d="M25.795 15.834c0-7.067-5.729-12.795-12.795-12.795s-12.795 5.728-12.795 12.795c0 3.894 1.742 7.38 4.487 9.726l-2.182 2.736 0.834 0.665 2.187-2.742c2.102 1.514 4.68 2.409 7.469 2.409 2.777 0 5.344-0.887 7.441-2.39l2.175 2.722 0.833-0.665-2.167-2.713c2.76-2.347 4.513-5.843 4.513-9.749zM13.056 24.364c-4.711 0-8.53-3.819-8.53-8.53s3.819-8.53 8.53-8.53 8.53 3.818 8.53 8.53c0 4.711-3.819 8.53-8.53 8.53z" fill="#000000"></path>
</svg>
