<?xml version="1.0" encoding="utf-8"?>
<!-- Generated by IcoMoon.io -->
<!DOCTYPE svg PUBLIC "-//W3C//DTD SVG 1.1//EN" "http://www.w3.org/Graphics/SVG/1.1/DTD/svg11.dtd">
<svg version="1.1" xmlns="http://www.w3.org/2000/svg" xmlns:xlink="http://www.w3.org/1999/xlink" width="28" height="32" viewBox="0 0 28 32">
<g id="icomoon-ignore">
</g>
<path d="M14 2.672c-7.361 0-13.328 5.967-13.328 13.328s5.968 13.328 13.328 13.328 13.328-5.968 13.328-13.328c0-7.361-5.968-13.328-13.328-13.328zM7.812 9.761c0.197-0.152 0.467-0.145 0.656 0l6.463 4.918c0.061 0.047 0.1 0.095 0.142 0.142 0.321 0.293 0.527 0.71 0.527 1.18 0 0.884-0.716 1.599-1.599 1.599-0.504 0-0.947-0.237-1.241-0.602-0.023-0.025-0.052-0.047-0.073-0.073l-4.972-6.41c-0.181-0.235-0.137-0.573 0.098-0.754zM14 28.246c-6.772 0-12.262-5.49-12.262-12.262 0-3.386 1.372-6.452 3.591-8.671l0.758 0.758c-2.027 2.027-3.283 4.826-3.283 7.913 0 6.173 5.022 11.196 11.196 11.196s11.196-5.023 11.196-11.196c0-5.994-4.738-10.887-10.662-11.169v4.232h-1.066v-5.312c0.177-0.008 0.354-0.014 0.533-0.014 6.772 0 12.262 5.49 12.262 12.262s-5.49 12.262-12.262 12.262z" fill="#000000"></path>
</svg>
