<?xml version="1.0" encoding="utf-8"?>
<!-- Generated by IcoMoon.io -->
<!DOCTYPE svg PUBLIC "-//W3C//DTD SVG 1.1//EN" "http://www.w3.org/Graphics/SVG/1.1/DTD/svg11.dtd">
<svg version="1.1" xmlns="http://www.w3.org/2000/svg" xmlns:xlink="http://www.w3.org/1999/xlink" width="30" height="32" viewBox="0 0 30 32">
<g id="icomoon-ignore">
</g>
<path d="M28.532 25.76l-5.655-5.655 0.754-0.754-0.754-0.754-2.261 2.261-3.771-3.77 4.531-4.532c0.603 0.215 1.234 0.324 1.882 0.324 1.493 0 2.897-0.582 3.954-1.637 1.63-1.631 2.092-4.054 1.178-6.174l-0.311-0.722-2.43 2.43-1.956 0.027 0.026-1.866 2.477-2.477-0.72-0.312c-0.706-0.306-1.457-0.461-2.229-0.461-1.494 0-2.897 0.582-3.952 1.637-1.546 1.545-2.043 3.802-1.311 5.84l-4.529 4.529-6.41-6.408 0.754-0.754-4.145-4.146-2.264 2.261 4.147 4.147 0.753-0.754 6.409 6.408-4.529 4.529c-0.605-0.217-1.239-0.326-1.888-0.326-1.493 0-2.897 0.582-3.953 1.637-1.633 1.632-2.095 4.059-1.176 6.181l0.312 0.72 2.477-2.477 1.865-0.025-0.027 1.956-2.43 2.43 0.722 0.311c0.704 0.303 1.452 0.458 2.221 0.458 1.494 0 2.897-0.581 3.952-1.636 1.544-1.544 2.041-3.799 1.314-5.833l4.532-4.532 3.771 3.769-2.263 2.263 0.754 0.754 0.754-0.754 5.654 5.654c0.503 0.504 1.173 0.781 1.885 0.781s1.381-0.277 1.885-0.781c1.039-1.039 1.039-2.73-0-3.769z" fill="#000000"></path>
</svg>
