<?xml version="1.0" encoding="utf-8"?>
<!-- Generated by IcoMoon.io -->
<!DOCTYPE svg PUBLIC "-//W3C//DTD SVG 1.1//EN" "http://www.w3.org/Graphics/SVG/1.1/DTD/svg11.dtd">
<svg version="1.1" xmlns="http://www.w3.org/2000/svg" xmlns:xlink="http://www.w3.org/1999/xlink" width="20" height="32" viewBox="0 0 20 32">
<g id="icomoon-ignore">
</g>
<path d="M14.798 5.871v-1.066c0-1.178-0.955-2.132-2.133-2.132h-5.331c-1.178 0-2.132 0.955-2.132 2.132v1.066h-5.331v1.066h1.097l1.068 20.259c0 1.178 0.955 2.133 2.132 2.133h11.729c1.178 0 2.133-0.955 2.133-2.133l1.049-20.259h1.051v-1.066h-5.331zM6.268 4.804c0-0.588 0.478-1.066 1.066-1.066h5.331c0.587 0 1.066 0.478 1.066 1.066v1.066h-7.464v-1.066zM6.294 26.163l-1.091-17.027 1.064-0.068 1.091 17.027-1.064 0.068zM10.533 26.129h-1.066v-17.060h1.066v17.060zM13.73 26.163l-1.064-0.067 1.076-17.060 1.064 0.067-1.076 17.060z" fill="#000000"></path>
</svg>
