<?xml version="1.0" encoding="utf-8"?>
<!-- Generated by IcoMoon.io -->
<!DOCTYPE svg PUBLIC "-//W3C//DTD SVG 1.1//EN" "http://www.w3.org/Graphics/SVG/1.1/DTD/svg11.dtd">
<svg version="1.1" xmlns="http://www.w3.org/2000/svg" xmlns:xlink="http://www.w3.org/1999/xlink" width="32" height="32" viewBox="0 0 32 32">
<g id="icomoon-ignore">
</g>
<path d="M16.533 2.685v-1.612h-1.066v1.612c-8.573 0.281-15.461 7.298-15.461 15.889 0 0.565 0.032 1.144 0.094 1.722l1.063-0.038c0.065-1.789 1.516-3.191 3.305-3.191 1.826 0 3.312 1.486 3.312 3.312h1.066c0-1.826 1.486-3.312 3.312-3.312 1.806 0 3.276 1.453 3.309 3.25v8.255c0 1.299 1.056 2.356 2.355 2.356s2.356-1.057 2.356-2.356h-1.066c0 0.711-0.579 1.29-1.29 1.29s-1.289-0.578-1.289-1.29v-8.194h0.003c0-1.826 1.485-3.312 3.311-3.312s3.312 1.486 3.312 3.312h1.066c0-1.826 1.486-3.312 3.312-3.312 1.774 0 3.225 1.389 3.304 3.162l1.063 0.032c0.059-0.565 0.090-1.133 0.090-1.687-0-8.591-6.888-15.607-15.461-15.889z" fill="#000000"></path>
</svg>
