<?xml version="1.0" encoding="utf-8"?>
<!-- Generated by IcoMoon.io -->
<!DOCTYPE svg PUBLIC "-//W3C//DTD SVG 1.1//EN" "http://www.w3.org/Graphics/SVG/1.1/DTD/svg11.dtd">
<svg version="1.1" xmlns="http://www.w3.org/2000/svg" xmlns:xlink="http://www.w3.org/1999/xlink" width="25" height="32" viewBox="0 0 25 32">
<g id="icomoon-ignore">
</g>
<path d="M12.602 3.415c-6.96 0-12.602 5.642-12.602 12.602s5.641 12.602 12.602 12.602c6.959 0 12.602-5.642 12.602-12.602s-5.642-12.602-12.602-12.602zM20.375 24.553c-2.141-0.847-5.148-1.779-5.148-1.973 0-0.24 0-1.050 0-1.050s1.444-0.328 2.363-0.328c0.919 0 1.575-0.057 2.363-1.042-0.985-1.739-2.1-5.653-2.1-7.655l-0.014 0.005c-0.154-2.763-2.436-4.957-5.236-4.957s-5.082 2.195-5.235 4.957l-0.015-0.005c0 2.002-1.116 5.915-2.1 7.655 0.788 0.984 1.444 1.042 2.363 1.042s2.363 0.24 2.363 0.24 0 0.898 0 1.138c0 0.197-3.075 1.082-5.212 1.913-2.282-2.112-3.714-5.129-3.714-8.477 0-6.37 5.182-11.552 11.551-11.552s11.552 5.182 11.552 11.552c0 3.378-1.458 6.423-3.778 8.537z" fill="#000000"></path>
</svg>
