<?xml version="1.0" encoding="utf-8"?>
<!-- Generated by IcoMoon.io -->
<!DOCTYPE svg PUBLIC "-//W3C//DTD SVG 1.1//EN" "http://www.w3.org/Graphics/SVG/1.1/DTD/svg11.dtd">
<svg version="1.1" xmlns="http://www.w3.org/2000/svg" xmlns:xlink="http://www.w3.org/1999/xlink" width="26" height="32" viewBox="0 0 26 32">
<g id="icomoon-ignore">
</g>
<path d="M13 3.205c-7.066 0-12.795 5.728-12.795 12.795s5.729 12.795 12.795 12.795c7.067 0 12.795-5.728 12.795-12.795s-5.728-12.795-12.795-12.795zM22.018 23.49c-1.169-0.488-3.93-1.446-5.638-1.951-0.146-0.046-0.169-0.053-0.169-0.66 0-0.501 0.206-1.005 0.407-1.432 0.218-0.464 0.476-1.244 0.569-1.944 0.26-0.301 0.613-0.894 0.839-2.026 0.199-0.997 0.106-1.36-0.026-1.7-0.014-0.036-0.029-0.071-0.038-0.107-0.050-0.234 0.018-1.448 0.189-2.391 0.118-0.647-0.030-2.022-0.92-3.159-0.562-0.719-1.638-1.601-3.603-1.724l-1.078 0.001c-1.931 0.122-3.008 1.004-3.57 1.723-0.89 1.138-1.038 2.513-0.92 3.159 0.171 0.943 0.239 2.158 0.191 2.387-0.011 0.040-0.026 0.075-0.040 0.111-0.132 0.341-0.225 0.703-0.026 1.7 0.226 1.131 0.579 1.725 0.839 2.026 0.092 0.7 0.35 1.48 0.569 1.944 0.16 0.339 0.234 0.801 0.234 1.454 0 0.607-0.022 0.614-0.159 0.657-1.767 0.522-4.58 1.538-5.628 1.997-1.725-2.042-2.768-4.679-2.768-7.555 0-6.467 5.261-11.729 11.729-11.729s11.729 5.261 11.729 11.729c0 2.845-1.019 5.457-2.711 7.49z" fill="#000000"></path>
</svg>
