<?xml version="1.0" encoding="utf-8"?>
<!-- Generated by IcoMoon.io -->
<!DOCTYPE svg PUBLIC "-//W3C//DTD SVG 1.1//EN" "http://www.w3.org/Graphics/SVG/1.1/DTD/svg11.dtd">
<svg version="1.1" xmlns="http://www.w3.org/2000/svg" xmlns:xlink="http://www.w3.org/1999/xlink" width="28" height="32" viewBox="0 0 28 32">
<g id="icomoon-ignore">
</g>
<path d="M9.612 21.811c0.902-0.377 2.804-1.047 4.387-1.555 0.2-0.065 0.396-0.126 0.584-0.185 0.026-0.008 0.049-0.015 0.075-0.023 0.183-0.056 0.36-0.11 0.524-0.159 0.143-0.045 0.166-0.052 0.166-0.65 0-0.123-0.012-0.247-0.035-0.369-0.014-0.079-0.037-0.155-0.058-0.233-0.011-0.043-0.020-0.088-0.033-0.13-0.020-0.064-0.045-0.125-0.069-0.188-0.064-0.17-0.133-0.337-0.206-0.491-0.053-0.114-0.11-0.247-0.164-0.394-0.018-0.047-0.034-0.102-0.051-0.151-0.038-0.106-0.076-0.21-0.111-0.324-0.017-0.057-0.031-0.119-0.047-0.178-0.031-0.113-0.063-0.225-0.090-0.341s-0.044-0.23-0.063-0.345c-0.010-0.060-0.026-0.122-0.034-0.182v-0.001c-0.095-0.111-0.204-0.263-0.315-0.467-0.013-0.026-0.027-0.056-0.041-0.084-0.023-0.046-0.046-0.089-0.069-0.139-0.034-0.074-0.068-0.156-0.101-0.242-0.003-0.007-0.005-0.012-0.008-0.019-0.033-0.087-0.066-0.181-0.097-0.281-0.002-0.008-0.005-0.014-0.007-0.023-0.032-0.1-0.063-0.208-0.091-0.322-0.003-0.009-0.005-0.016-0.008-0.026-0.031-0.123-0.062-0.255-0.089-0.394-0.024-0.118-0.042-0.227-0.058-0.328-0.003-0.023-0.005-0.042-0.008-0.063-0.011-0.077-0.022-0.151-0.028-0.22-0.002-0.023-0.004-0.044-0.005-0.066-0.005-0.059-0.009-0.116-0.011-0.169-0.001-0.029-0.001-0.057-0.001-0.085 0-0.038 0.001-0.074 0.002-0.109 0.002-0.039 0.004-0.077 0.008-0.113 0.001-0.018 0.003-0.035 0.005-0.052 0.006-0.046 0.012-0.090 0.022-0.133 0.001-0.006 0.002-0.013 0.004-0.019 0.009-0.045 0.021-0.089 0.033-0.132 0.002-0.007 0.004-0.015 0.006-0.022 0.011-0.036 0.025-0.072 0.037-0.108 0.007-0.018 0.013-0.038 0.021-0.056 0.001-0.002 0.002-0.004 0.002-0.006l0.008-0.020c0.010-0.026 0.019-0.053 0.028-0.079l0.001-0.004c0.003-0.016 0.004-0.046 0.006-0.068 0.002-0.021 0.005-0.035 0.006-0.062 0.014-0.291-0.021-0.882-0.091-1.48-0.001-0.005-0.001-0.010-0.002-0.015-0.011-0.093-0.024-0.185-0.036-0.276-0.005-0.032-0.008-0.065-0.013-0.097-0.015-0.104-0.032-0.203-0.049-0.301-0.003-0.016-0.005-0.034-0.008-0.050-0.014-0.080-0.025-0.171-0.030-0.272-0.024-0.428 0.050-1.027 0.281-1.65 0.148-0.398 0.357-0.807 0.655-1.189 0.003-0.004 0.006-0.007 0.009-0.010 0.082-0.105 0.171-0.204 0.261-0.299 0.051-0.053 0.107-0.106 0.164-0.158 0.042-0.040 0.086-0.080 0.13-0.118 0.079-0.068 0.163-0.135 0.254-0.201 0.023-0.018 0.048-0.035 0.073-0.052 0.107-0.074 0.22-0.147 0.343-0.216 0.015-0.008 0.031-0.017 0.046-0.026 0.127-0.070 0.265-0.136 0.409-0.198 0.020-0.009 0.041-0.017 0.062-0.026 0.139-0.057 0.288-0.108 0.443-0.155 0.034-0.010 0.067-0.021 0.102-0.030 0.151-0.042 0.311-0.077 0.477-0.109 0.041-0.007 0.079-0.017 0.121-0.024 0.206-0.034 0.424-0.061 0.654-0.075l1.061 0.001c0.126 0.008 0.239 0.027 0.358 0.042 0.111 0.013 0.228 0.022 0.332 0.040 0.108 0.019 0.204 0.046 0.306 0.070 0.096 0.023 0.199 0.041 0.29 0.068 0.099 0.029 0.187 0.065 0.279 0.098 0.082 0.030 0.169 0.056 0.247 0.089 0.090 0.038 0.171 0.082 0.255 0.124 0.067 0.034 0.14 0.065 0.203 0.101 0.083 0.047 0.157 0.098 0.234 0.148 0.053 0.034 0.112 0.067 0.162 0.103 0.082 0.059 0.154 0.12 0.228 0.181 0.035 0.029 0.076 0.057 0.109 0.087 0.084 0.074 0.158 0.149 0.231 0.224 0.017 0.017 0.036 0.034 0.051 0.051 0.086 0.092 0.163 0.183 0.232 0.271 0.877 1.12 1.023 2.475 0.907 3.111-0.004 0.026-0.008 0.052-0.012 0.078-0.015 0.085-0.030 0.171-0.043 0.261-0.050 0.337-0.087 0.686-0.112 1.001-0.001 0.018-0.003 0.037-0.004 0.055-0.006 0.078-0.010 0.151-0.014 0.223-0.002 0.034-0.005 0.070-0.006 0.102-0.003 0.067-0.005 0.125-0.007 0.184-0.001 0.029-0.002 0.059-0.002 0.086-0.002 0.080-0.001 0.149 0.001 0.207 0 0.001 0 0.003 0 0.004 0.002 0.062 0.005 0.111 0.011 0.142 0.001 0.002 0.001 0.006 0.001 0.007v0.002c0.010 0.038 0.023 0.072 0.038 0.107 0.076 0.197 0.126 0.395 0.136 0.651 0 0.007 0 0.014 0 0.022 0.002 0.054 0.002 0.112 0 0.172-0.001 0.031-0.004 0.066-0.006 0.1-0.003 0.043-0.006 0.085-0.010 0.13-0.006 0.056-0.014 0.117-0.023 0.179-0.005 0.033-0.008 0.063-0.013 0.098-0.015 0.101-0.035 0.208-0.058 0.326-0.195 0.977-0.487 1.546-0.727 1.871-0.034 0.046-0.068 0.088-0.099 0.125-0.039 0.296-0.111 0.603-0.194 0.897-0.013 0.049-0.025 0.101-0.040 0.149-0.028 0.093-0.058 0.175-0.088 0.263-0.025 0.071-0.048 0.148-0.073 0.213-0.055 0.146-0.112 0.279-0.165 0.393-0.039 0.084-0.073 0.175-0.102 0.275-0.005 0.017-0.007 0.039-0.012 0.057-0.023 0.085-0.043 0.171-0.059 0.269-0.007 0.045-0.010 0.097-0.015 0.145-0.010 0.078-0.022 0.153-0.027 0.239-0.009 0.138-0.014 0.287-0.014 0.448 0 0.396 0.011 0.531 0.057 0.591 0.001 0.003 0.002 0.010 0.004 0.013s0.015 0.010 0.035 0.020c0.017 0.009 0.037 0.017 0.060 0.024 0.109 0.032 0.221 0.066 0.337 0.102 0.67 0.206 1.454 0.468 2.221 0.736 0.027 0.009 0.053 0.018 0.079 0.028 0.085 0.030 0.169 0.060 0.253 0.090 0.047 0.016 0.095 0.033 0.14 0.049 0.055 0.020 0.109 0.040 0.164 0.059 0.075 0.027 0.151 0.054 0.225 0.081 0.023 0.008 0.043 0.016 0.066 0.024 0.104 0.037 0.207 0.075 0.308 0.112 0.014 0.006 0.029 0.011 0.044 0.017 0.469 0.173 0.896 0.337 1.242 0.476 0.177 0.071 0.334 0.136 0.464 0.193 0.094 0.041 0.178 0.086 0.257 0.133 0.031 0.019 0.059 0.041 0.088 0.061 0.044 0.030 0.086 0.060 0.125 0.092 0.033 0.027 0.063 0.056 0.092 0.086 0.028 0.028 0.055 0.055 0.081 0.084 0.030 0.034 0.057 0.070 0.084 0.107 0.018 0.027 0.037 0.053 0.053 0.080 0.026 0.041 0.048 0.083 0.070 0.127 0.012 0.026 0.025 0.052 0.036 0.078 0.018 0.046 0.036 0.094 0.050 0.144 0.008 0.026 0.016 0.052 0.023 0.078 0.013 0.052 0.023 0.107 0.032 0.162 0.004 0.025 0.009 0.049 0.012 0.074 0.009 0.079 0.014 0.16 0.014 0.245 0 0.55 0 2.142 0 2.582 0 0.015 0 0.031 0 0.044 0 0.372-0.22 1.007-1.018 1.007-0.007 0-0.023 0-0.032 0-0.708 0-5.518 0-7.722 0-0.669 0-1.099 0-1.099 0h-0.192c0 0-0.438 0-1.116 0-2.208 0-6.994 0-7.717 0-0.011 0-0.029 0-0.038 0-0.744 0-0.983-0.55-1.012-0.927v-0.121l-0.006-2.582c0-0.547 0.374-1.258 1.211-1.616z" fill="#000000"></path>
<path d="M0.978 20.715c0.93-0.389 3.127-1.152 4.487-1.553 0.116-0.037 0.134-0.043 0.134-0.525 0-0.399-0.165-0.8-0.325-1.14-0.172-0.37-0.378-0.99-0.452-1.548-0.206-0.239-0.487-0.712-0.668-1.613-0.158-0.794-0.084-1.082 0.022-1.354 0.010-0.029 0.022-0.057 0.030-0.085 0.040-0.187-0.014-1.154-0.151-1.904-0.093-0.514 0.025-1.609 0.733-2.516 0.447-0.572 1.302-1.275 2.866-1.372h0.857c1.537 0.097 2.394 0.8 2.841 1.372 0.709 0.907 0.827 2.001 0.733 2.516-0.137 0.751-0.191 1.718-0.152 1.9 0.008 0.032 0.020 0.060 0.031 0.089 0.105 0.271 0.179 0.56 0.021 1.354-0.179 0.901-0.46 1.374-0.668 1.613-0.074 0.558-0.279 1.178-0.452 1.548-0.127 0.27-0.187 0.638-0.187 1.158 0 0.483 0.018 0.489 0.127 0.523 0.463 0.137 1.014 0.316 1.575 0.508-1.253 0.425-2.497 0.875-3.183 1.161-1.276 0.547-1.847 1.691-1.847 2.585l0.003 1.527c-0.086 0-0.178 0-0.28 0-1.809 0-5.756 0-6.252 0-0.644 0-0.823-0.514-0.823-0.814s0-1.663 0-2.122c-0-0.46 0.317-1.022 0.978-1.305z" fill="#000000"></path>
</svg>
