<?xml version="1.0" encoding="utf-8"?>
<!-- Generated by IcoMoon.io -->
<!DOCTYPE svg PUBLIC "-//W3C//DTD SVG 1.1//EN" "http://www.w3.org/Graphics/SVG/1.1/DTD/svg11.dtd">
<svg version="1.1" xmlns="http://www.w3.org/2000/svg" xmlns:xlink="http://www.w3.org/1999/xlink" width="29" height="32" viewBox="0 0 29 32">
<g id="icomoon-ignore">
</g>
<path d="M26.667 9.867l-0.96 0.96c-2.080-1.813-4.747-2.827-7.52-2.827-1.867 0-3.733 0.48-5.333 1.333l4.053-4.053c0.32 0.213 0.693 0.32 1.067 0.32 0.533 0 1.067-0.213 1.493-0.64 0.853-0.853 0.853-2.187 0-3.040-0.427-0.427-0.96-0.64-1.493-0.64s-1.067 0.213-1.493 0.64c-0.693 0.747-0.8 1.813-0.32 2.613l-5.12 5.12-0.96-0.96-2.613 2.613 0.96 0.96-5.227 5.227c-0.32-0.213-0.693-0.32-1.067-0.32-0.533 0-1.067 0.213-1.493 0.64-0.853 0.853-0.853 2.187 0 3.040 0.427 0.373 0.96 0.587 1.493 0.587s1.067-0.213 1.493-0.64c0.693-0.693 0.8-1.76 0.32-2.56l4.053-4.053c-2.133 4.107-1.653 9.227 1.493 12.853l-0.96 0.96 2.667 2.613 2.613-2.613-2.667-2.613-0.907 0.907c-3.093-3.627-3.253-8.853-0.64-12.693l0.427 0.427 2.667-2.613-0.427-0.427c1.76-1.227 3.787-1.867 5.92-1.867 2.507 0 4.853 0.907 6.773 2.507l-0.96 0.907 2.667 2.613 2.613-2.613-2.613-2.667z" fill="#000000"></path>
</svg>
