<?xml version="1.0" encoding="utf-8"?>
<!-- Generated by IcoMoon.io -->
<!DOCTYPE svg PUBLIC "-//W3C//DTD SVG 1.1//EN" "http://www.w3.org/Graphics/SVG/1.1/DTD/svg11.dtd">
<svg version="1.1" xmlns="http://www.w3.org/2000/svg" xmlns:xlink="http://www.w3.org/1999/xlink" width="28" height="32" viewBox="0 0 28 32">
<g id="icomoon-ignore">
</g>
<path d="M13.652 5.265l-7.696 6.134h-5.955v4.748l-0.003 0.003 0.003 0.003v4.698h5.987l7.664 6.015v-6.015h0.001v-9.451h-0.001z" fill="#000000"></path>
<path d="M16.105 10.726c1.142 1.522 1.746 3.336 1.746 5.246 0 1.95-0.627 3.795-1.813 5.335l0.832 0.641c1.329-1.726 2.032-3.792 2.032-5.976 0-2.139-0.677-4.171-1.957-5.877l-0.84 0.631z" fill="#000000"></path>
<path d="M20.336 6.919l-0.809 0.669c1.973 2.389 3.059 5.416 3.059 8.521 0 3.069-1.009 5.956-2.919 8.348l0.82 0.655c2.060-2.58 3.148-5.693 3.148-9.003-0-3.349-1.172-6.613-3.3-9.19z" fill="#000000"></path>
<path d="M23.606 3.51l-0.789 0.694c2.896 3.289 4.492 7.518 4.492 11.909 0 4.302-1.539 8.467-4.335 11.727l0.798 0.683c2.957-3.45 4.587-7.858 4.587-12.41 0-4.647-1.688-9.123-4.753-12.603z" fill="#000000"></path>
</svg>
