<?xml version="1.0" encoding="utf-8"?>
<!-- Generated by IcoMoon.io -->
<!DOCTYPE svg PUBLIC "-//W3C//DTD SVG 1.1//EN" "http://www.w3.org/Graphics/SVG/1.1/DTD/svg11.dtd">
<svg version="1.1" xmlns="http://www.w3.org/2000/svg" xmlns:xlink="http://www.w3.org/1999/xlink" width="26" height="32" viewBox="0 0 26 32">
<g id="icomoon-ignore">
</g>
<path d="M21.53 5.61c0-1.328-1.076-2.405-2.405-2.405h-16.514c-1.328 0-2.405 1.077-2.405 2.405v1.86h21.325v-1.86z" fill="#000000"></path>
<path d="M24.993 8.536h-24.788v19.457c0 0.443 0.359 0.802 0.802 0.802h23.986c0.443 0 0.802-0.359 0.802-0.802v-18.655c0-0.443-0.359-0.802-0.802-0.802zM19.931 20.798c-1.178 0-2.133-0.954-2.133-2.131 0-1.178 0.955-2.133 2.133-2.133s2.132 0.954 2.132 2.133c0 1.177-0.954 2.131-2.132 2.131z" fill="#000000"></path>
</svg>
