<?xml version="1.0" encoding="utf-8"?>
<!-- Generated by IcoMoon.io -->
<!DOCTYPE svg PUBLIC "-//W3C//DTD SVG 1.1//EN" "http://www.w3.org/Graphics/SVG/1.1/DTD/svg11.dtd">
<svg version="1.1" xmlns="http://www.w3.org/2000/svg" xmlns:xlink="http://www.w3.org/1999/xlink" width="23" height="32" viewBox="0 0 23 32">
<g id="icomoon-ignore">
</g>
<path d="M3.155 14.178c0 5.509 4.466 9.976 9.976 9.976s9.976-4.467 9.976-9.976c0-5.511-4.466-9.977-9.976-9.977s-9.976 4.466-9.976 9.977z" fill="#000000"></path>
<path d="M19.079 25.89l0.507 1.021 0.94-0.466-1.427-2.883-0.94 0.467 0.454 0.918c-1.689 0.86-3.57 1.317-5.48 1.317-6.662 0-12.082-5.422-12.082-12.086 0-4.54 2.572-8.705 6.589-10.761l0.488 0.986 0.941-0.467-1.428-2.882-0.941 0.466 0.474 0.956c-4.373 2.233-7.174 6.762-7.174 11.701 0 7.067 5.609 12.846 12.607 13.123v1.598c-2.424 0.094-4.683 0.842-6.598 2.081h2.197c1.503-0.673 3.168-1.050 4.919-1.050 1.721 0 3.387 0.373 4.908 1.050h2.206c-1.939-1.249-4.206-1.983-6.582-2.081v-1.602c1.891-0.076 3.743-0.555 5.422-1.407z" fill="#000000"></path>
</svg>
