<?xml version="1.0" encoding="utf-8"?>
<!-- Generated by IcoMoon.io -->
<!DOCTYPE svg PUBLIC "-//W3C//DTD SVG 1.1//EN" "http://www.w3.org/Graphics/SVG/1.1/DTD/svg11.dtd">
<svg version="1.1" xmlns="http://www.w3.org/2000/svg" xmlns:xlink="http://www.w3.org/1999/xlink" width="27" height="32" viewBox="0 0 27 32">
<g id="icomoon-ignore">
</g>
<path d="M20.049 2.279l-4.731 4.731c3.614 1.016 6.401 4.014 7.105 7.747l5.052-5.052-7.426-7.426z" fill="#000000"></path>
<path d="M3.028 19.301l-3.028 3.028 1.548 6.002 5.878 1.423 3.349-3.349c-3.733-0.704-6.731-3.491-7.747-7.105z" fill="#000000"></path>
<path d="M21.503 15.677c-0.402-3.881-3.291-7.022-7.045-7.806l-0.002 0.002c-0.592-0.124-1.204-0.191-1.832-0.191-4.055 0-7.481 2.72-8.564 6.428-0.231 0.793-0.361 1.629-0.361 2.497 0 0.236 0.017 0.469 0.036 0.701 0.005 0.072 0.004 0.146 0.011 0.217 0.010 0.104 0.033 0.204 0.047 0.307 0.028 0.201 0.053 0.403 0.094 0.6 0.781 3.761 3.927 6.655 7.814 7.055 0.285 0.028 0.574 0.043 0.867 0.045 0.020 0 0.038 0.003 0.057 0.003 4.922-0.001 8.926-4.005 8.926-8.926 0-0.314-0.017-0.624-0.049-0.929l0.002-0.001zM15.403 20.13l-3.304-3.305v-5.993h1.050v5.558l2.997 2.997-0.742 0.742z" fill="#000000"></path>
</svg>
